<svg width="588" height="410" viewBox="0 0 588 410" fill="none" xmlns="http://www.w3.org/2000/svg">
<path d="M367.111 292.959C367.111 346.579 323.711 390.046 270.174 390.046C216.637 390.046 173.236 346.579 173.236 292.959C173.236 239.339 216.637 195.872 270.174 195.872C323.711 195.872 367.111 239.339 367.111 292.959Z" fill="#CBFB7C"/>
<path d="M379.164 355.797C375.781 352.558 375.66 347.184 378.895 343.796L507.172 209.415C508.153 208.387 509.376 207.623 510.73 207.192L569.947 188.333C576.292 186.312 582.378 192.071 580.725 198.53L565.176 259.278C564.815 260.689 564.097 261.983 563.092 263.036L434.853 397.377C431.618 400.766 426.253 400.887 422.87 397.647L379.164 355.797Z" fill="#E64287"/>
<path d="M319.128 10.0332C325.628 9.47038 330.299 16.1661 327.536 22.0855L258.33 170.33C255.567 176.249 247.441 176.953 243.705 171.596L150.122 37.4473C146.386 32.0907 149.84 24.6915 156.34 24.1287L319.128 10.0332Z" fill="#E64287"/>
<path fill-rule="evenodd" clip-rule="evenodd" d="M206.139 155.778C210.522 158.841 211.597 164.882 208.539 169.272C199.554 182.17 184.805 192.712 169.175 199.787C163.371 219.082 147.214 233.252 125.147 239.735C123.493 240.221 121.834 240.639 120.126 240.951C124.258 251.645 124.173 262.109 120.901 272.107C115.579 288.373 99.9767 303.882 76.42 305.697C71.0912 306.108 66.439 302.114 66.029 296.777C65.619 291.44 69.6064 286.781 74.9352 286.37C90.1311 285.199 99.443 275.442 102.509 266.07C104.736 259.264 104.579 252.363 100.527 244.517C100.355 244.282 100.116 243.963 99.8071 243.553C99.6402 243.331 99.4556 243.087 99.2585 242.826C98.6869 242.069 98.0111 241.175 97.3635 240.301C96.5079 239.148 95.5504 237.83 94.8102 236.7C94.4681 236.179 93.9889 235.421 93.5872 234.617C93.4126 234.268 93.0261 233.469 92.7505 232.442C92.6153 231.938 92.3855 230.947 92.4014 229.686C92.4163 228.495 92.6688 226.015 94.5543 223.664C95.9311 221.947 97.5338 221.131 98.4292 220.762C99.3722 220.374 100.181 220.216 100.65 220.143C101.572 220 102.313 220.024 102.609 220.037C103.276 220.066 103.819 220.157 104.03 220.193C104.542 220.282 105.039 220.4 105.367 220.481C106.087 220.658 106.937 220.895 107.672 221.104C108.387 221.308 109.101 221.518 109.643 221.677L109.74 221.706C109.938 221.764 110.1 221.811 110.231 221.849C113.788 222.483 116.26 222.145 119.699 221.134C131.412 217.693 139.866 211.897 145.188 204.862C142.85 204.483 140.423 203.717 138.099 202.339C130.582 197.881 122.94 191.232 116.749 184.307C110.714 177.556 105.131 169.515 102.878 162.002C102.072 159.313 101.822 156.308 102.627 153.253C103.438 150.174 105.138 147.744 107.111 145.95C110.749 142.64 115.486 141.293 119.122 140.661C126.699 139.346 135.82 140.116 142.281 141.615C158.521 145.384 166.023 158.366 168.999 169.786C169.655 172.302 170.128 174.854 170.444 177.375C179.895 171.888 187.774 165.203 192.666 158.181C195.724 153.791 201.756 152.715 206.139 155.778ZM151.605 185.543C151.598 182.225 151.244 178.409 150.272 174.681C148.272 167.007 144.402 162.005 137.912 160.499C133.406 159.453 127.187 159.017 122.786 159.702C124.449 162.947 127.29 167.039 131.168 171.376C136.351 177.174 142.504 182.424 147.959 185.659C147.942 185.649 147.945 185.649 147.972 185.657C148.121 185.7 149.011 185.958 151.125 185.625C151.285 185.6 151.445 185.572 151.605 185.543ZM110.575 221.947C110.578 221.948 110.553 221.942 110.494 221.925C110.543 221.938 110.573 221.946 110.575 221.947ZM100.748 244.827C100.748 244.827 100.731 244.803 100.704 244.762C100.736 244.808 100.748 244.827 100.748 244.827Z" fill="#683EE0"/>
<path d="M446.171 341.211L436.684 332.241L438.844 329.957L448.331 338.927L446.171 341.211ZM435.621 331.235L433.179 328.927L435.339 326.642L437.781 328.951L435.621 331.235Z" fill="#CBFB7C"/>
<path d="M450.325 336.818L437.125 324.335L439.285 322.051L452.486 334.533L450.325 336.818Z" fill="#CBFB7C"/>
<path d="M454.48 332.424L441.279 319.941L443.439 317.657L456.64 330.139L454.48 332.424Z" fill="#CBFB7C"/>
<path d="M462.043 324.845C461.35 325.577 460.583 326.063 459.741 326.302C458.909 326.529 458.066 326.513 457.21 326.254C456.365 325.983 455.553 325.479 454.774 324.743L448.967 319.252L451.127 316.967L456.742 322.277C457.137 322.651 457.557 322.905 458.003 323.04C458.447 323.152 458.894 323.145 459.343 323.019C459.792 322.871 460.192 322.611 460.544 322.239C460.896 321.867 461.128 321.458 461.24 321.014C461.34 320.558 461.316 320.106 461.168 319.658C461.019 319.209 460.736 318.787 460.317 318.391L454.754 313.131L456.915 310.846L466.401 319.817L464.356 321.979L462.491 320.215L463.003 320.336C463.376 321.107 463.465 321.885 463.272 322.672C463.09 323.446 462.68 324.171 462.043 324.845Z" fill="#CBFB7C"/>
<path d="M472.032 314.281C471.075 315.293 470.001 315.951 468.81 316.256C467.618 316.538 466.478 316.429 465.389 315.927L466.185 313.443C466.951 313.705 467.688 313.763 468.397 313.619C469.117 313.463 469.73 313.118 470.236 312.583C470.631 312.164 470.852 311.745 470.896 311.325C470.941 310.905 470.813 310.552 470.51 310.266C470.324 310.09 470.124 310 469.908 309.995C469.693 309.967 469.462 310.001 469.215 310.099C468.968 310.174 468.722 310.282 468.477 310.425L466.574 311.565C465.583 312.147 464.651 312.422 463.779 312.39C462.917 312.346 462.161 312.017 461.51 311.401C460.929 310.851 460.561 310.228 460.405 309.53C460.249 308.81 460.297 308.073 460.547 307.319C460.809 306.554 461.264 305.828 461.912 305.142C462.759 304.247 463.721 303.66 464.8 303.381C465.879 303.101 466.945 303.185 467.999 303.631L467.169 306.149C466.585 305.905 465.984 305.854 465.366 305.996C464.747 306.138 464.212 306.447 463.762 306.924C463.399 307.307 463.2 307.692 463.166 308.078C463.131 308.464 463.254 308.789 463.533 309.052C463.707 309.217 463.902 309.314 464.118 309.342C464.334 309.37 464.559 309.341 464.795 309.255C465.041 309.157 465.303 309.031 465.582 308.876L467.47 307.788C468.439 307.229 469.354 306.96 470.215 306.981C471.086 306.991 471.859 307.314 472.534 307.952C473.103 308.49 473.466 309.12 473.622 309.84C473.766 310.549 473.708 311.286 473.446 312.052C473.185 312.817 472.713 313.561 472.032 314.281Z" fill="#CBFB7C"/>
<path d="M481.073 304.51C480.062 305.579 478.985 306.136 477.843 306.179C476.701 306.2 475.595 305.704 474.525 304.693L470.34 300.736L468.79 302.375L466.75 300.445L466.915 300.271C467.354 299.806 467.573 299.33 467.571 298.844C467.568 298.357 467.335 297.894 466.87 297.454L466.137 296.762L468.297 294.477L470.46 296.522L472.521 294.342L474.561 296.271L472.5 298.451L476.563 302.293C476.877 302.59 477.194 302.79 477.514 302.895C477.845 302.987 478.178 302.972 478.514 302.85C478.861 302.715 479.211 302.462 479.563 302.09C479.639 302.009 479.722 301.91 479.809 301.795C479.907 301.668 480 301.546 480.087 301.431L482.04 303.277C481.91 303.462 481.757 303.67 481.583 303.901C481.408 304.133 481.238 304.335 481.073 304.51Z" fill="#CBFB7C"/>
<path d="M483.691 301.532L474.204 292.562L476.233 290.417L478.343 292.412L477.864 292.29C477.363 291.398 477.194 290.588 477.354 289.859C477.526 289.119 477.925 288.417 478.552 287.754L479.079 287.196L481.102 289.109L480.327 289.929C479.712 290.58 479.42 291.295 479.454 292.075C479.475 292.844 479.846 293.57 480.567 294.251L485.851 299.248L483.691 301.532Z" fill="#CBFB7C"/>
<path d="M492.788 292.33C492.162 292.993 491.507 293.464 490.824 293.743C490.142 294.023 489.471 294.104 488.811 293.986C488.14 293.858 487.531 293.535 486.984 293.019C486.461 292.524 486.106 291.968 485.919 291.351C485.72 290.723 485.712 290.032 485.895 289.28C486.078 288.528 486.463 287.725 487.05 286.871L489.479 283.289L491.223 284.938L489.154 288.035C488.806 288.565 488.633 289.04 488.633 289.458C488.634 289.877 488.803 290.246 489.14 290.565C489.465 290.873 489.842 290.998 490.271 290.941C490.699 290.861 491.088 290.635 491.44 290.263C491.891 289.786 492.188 289.274 492.331 288.727C492.473 288.157 492.458 287.603 492.284 287.064C492.122 286.514 491.826 286.036 491.395 285.629L488.954 283.321C488.547 282.936 488.056 282.78 487.481 282.853C486.905 282.903 486.37 283.189 485.875 283.712C485.413 284.201 485.135 284.763 485.04 285.4C484.944 286.013 485.028 286.611 485.293 287.192L482.622 288.2C482.298 287.542 482.143 286.844 482.156 286.108C482.169 285.35 482.329 284.598 482.636 283.854C482.944 283.11 483.4 282.418 484.005 281.778C484.741 280.999 485.535 280.451 486.386 280.133C487.226 279.804 488.055 279.718 488.875 279.877C489.693 280.012 490.44 280.399 491.114 281.036L497.427 287.005L495.382 289.168L493.76 287.634L494.187 287.113C494.363 287.742 494.431 288.357 494.392 288.958C494.34 289.548 494.187 290.129 493.931 290.702C493.664 291.264 493.283 291.807 492.788 292.33Z" fill="#CBFB7C"/>
<path d="M503.456 280.839C502.445 281.908 501.368 282.465 500.226 282.508C499.084 282.528 497.978 282.033 496.908 281.022L492.723 277.064L491.173 278.703L489.133 276.774L489.298 276.6C489.737 276.135 489.956 275.659 489.954 275.172C489.952 274.686 489.718 274.223 489.253 273.783L488.52 273.09L490.681 270.806L492.843 272.851L494.904 270.671L496.944 272.6L494.883 274.78L498.946 278.622C499.26 278.919 499.577 279.119 499.897 279.223C500.228 279.316 500.561 279.301 500.897 279.178C501.244 279.044 501.594 278.791 501.946 278.419C502.023 278.338 502.105 278.239 502.192 278.124C502.29 277.996 502.383 277.875 502.47 277.759L504.424 279.606C504.293 279.791 504.14 279.999 503.966 280.23C503.791 280.461 503.621 280.664 503.456 280.839Z" fill="#CBFB7C"/>
<path d="M506.074 277.861L496.587 268.891L498.748 266.606L508.234 275.576L506.074 277.861ZM495.524 267.885L493.082 265.576L495.242 263.292L497.684 265.6L495.524 267.885Z" fill="#CBFB7C"/>
<path d="M514.824 269.026C513.945 269.956 512.927 270.602 511.771 270.962C510.627 271.311 509.468 271.361 508.295 271.11C507.133 270.849 506.076 270.267 505.122 269.366C504.169 268.464 503.529 267.441 503.203 266.295C502.888 265.139 502.872 263.979 503.157 262.816C503.441 261.654 504.028 260.602 504.919 259.66C505.798 258.73 506.81 258.091 507.955 257.742C509.1 257.393 510.253 257.349 511.415 257.611C512.576 257.85 513.639 258.426 514.604 259.339C515.557 260.24 516.192 261.269 516.507 262.426C516.822 263.583 516.838 264.743 516.553 265.905C516.269 267.068 515.692 268.108 514.824 269.026ZM512.731 267.048C513.215 266.536 513.516 265.973 513.635 265.359C513.764 264.732 513.719 264.106 513.497 263.478C513.275 262.828 512.891 262.244 512.345 261.728C511.787 261.2 511.189 260.854 510.55 260.691C509.911 260.505 509.283 260.495 508.665 260.659C508.046 260.801 507.495 261.128 507.012 261.639C506.517 262.162 506.211 262.742 506.092 263.379C505.963 264.006 506.003 264.638 506.214 265.278C506.423 265.894 506.807 266.466 507.365 266.994C507.911 267.511 508.51 267.867 509.161 268.064C509.811 268.238 510.445 268.243 511.062 268.079C511.68 267.915 512.237 267.571 512.731 267.048Z" fill="#CBFB7C"/>
<path d="M520.985 262.091L511.499 253.121L513.527 250.976L515.393 252.74L514.897 252.602C514.536 251.842 514.447 251.075 514.629 250.3C514.81 249.503 515.219 248.767 515.857 248.093C516.517 247.395 517.25 246.922 518.058 246.673C518.877 246.412 519.703 246.389 520.535 246.604C521.356 246.807 522.121 247.244 522.83 247.915L528.933 253.686L526.773 255.97L521.21 250.71C520.792 250.314 520.354 250.055 519.898 249.932C519.442 249.809 518.995 249.816 518.558 249.953C518.119 250.067 517.719 250.316 517.356 250.699C517.004 251.071 516.778 251.485 516.678 251.941C516.566 252.385 516.584 252.832 516.732 253.28C516.881 253.729 517.164 254.151 517.583 254.547L523.145 259.807L520.985 262.091Z" fill="#CBFB7C"/>
<path d="M232.816 306.554C231.889 306.86 230.98 306.991 230.09 306.947C229.2 306.904 228.375 306.704 227.618 306.347C226.88 306.001 226.262 305.506 225.763 304.861L228.198 302.896C228.571 303.413 229.081 303.759 229.728 303.933C230.395 304.117 231.124 304.079 231.914 303.819C232.522 303.618 233.016 303.329 233.397 302.951C233.792 302.567 234.047 302.113 234.16 301.587C234.278 301.076 234.237 300.517 234.036 299.909L233.104 297.083L233.9 297.579C233.72 298.464 233.335 299.214 232.746 299.829C232.157 300.445 231.407 300.903 230.495 301.203C229.341 301.584 228.22 301.659 227.133 301.428C226.046 301.197 225.091 300.703 224.269 299.946C223.446 299.19 222.845 298.234 222.464 297.079C222.078 295.909 221.993 294.783 222.209 293.701C222.425 292.619 222.896 291.672 223.622 290.86C224.343 290.032 225.274 289.43 226.413 289.055C227.34 288.749 228.218 288.678 229.048 288.843C229.887 288.987 230.663 289.347 231.374 289.921L231.212 290.808L230.31 288.073L233.136 287.141L237.022 298.925C237.378 300.004 237.43 301.056 237.179 302.082C236.943 303.104 236.449 304.008 235.698 304.795C234.962 305.577 234.001 306.163 232.816 306.554ZM229.951 298.325C230.589 298.115 231.098 297.795 231.479 297.366C231.87 296.917 232.12 296.397 232.228 295.805C232.336 295.214 232.283 294.591 232.067 293.938C231.857 293.299 231.524 292.777 231.07 292.371C230.626 291.945 230.114 291.667 229.532 291.539C228.966 291.405 228.371 291.441 227.748 291.647C227.125 291.852 226.611 292.182 226.205 292.636C225.798 293.09 225.536 293.623 225.418 294.235C225.31 294.827 225.361 295.442 225.571 296.08C225.782 296.718 226.106 297.243 226.545 297.654C226.999 298.06 227.517 298.327 228.098 298.456C228.695 298.579 229.312 298.536 229.951 298.325Z" fill="#E64287"/>
<path d="M240.014 298.621L235.925 286.221L238.728 285.297L239.638 288.055L239.275 287.72C239.258 286.698 239.493 285.904 239.981 285.339C240.483 284.769 241.168 284.341 242.034 284.055L242.763 283.815L243.635 286.459L242.564 286.812C241.713 287.093 241.117 287.584 240.776 288.286C240.429 288.973 240.411 289.788 240.722 290.73L242.999 297.636L240.014 298.621Z" fill="#E64287"/>
<path d="M252.39 294.843C251.524 295.128 250.724 295.232 249.99 295.154C249.257 295.076 248.628 294.828 248.103 294.412C247.573 293.98 247.19 293.407 246.955 292.693C246.729 292.009 246.681 291.351 246.809 290.719C246.933 290.072 247.254 289.46 247.772 288.885C248.29 288.31 249.01 287.786 249.932 287.314L253.771 285.315L254.523 287.594L251.231 289.337C250.673 289.638 250.295 289.974 250.097 290.342C249.898 290.711 249.872 291.116 250.017 291.556C250.157 291.982 250.43 292.271 250.834 292.424C251.248 292.557 251.699 292.543 252.185 292.383C252.808 292.178 253.312 291.868 253.698 291.454C254.094 291.021 254.344 290.526 254.447 289.969C254.565 289.408 254.531 288.846 254.346 288.284L253.294 285.093C253.118 284.561 252.76 284.191 252.22 283.982C251.689 283.752 251.082 283.75 250.398 283.976C249.76 284.186 249.248 284.549 248.862 285.064C248.486 285.558 248.276 286.124 248.234 286.762L245.404 286.381C245.432 285.647 245.626 284.96 245.988 284.318C246.359 283.657 246.857 283.071 247.481 282.562C248.105 282.053 248.835 281.661 249.67 281.385C250.688 281.05 251.648 280.944 252.548 281.068C253.443 281.177 254.214 281.496 254.86 282.024C255.516 282.533 255.989 283.227 256.28 284.109L259.001 292.359L256.174 293.292L255.475 291.172L256.098 290.916C255.955 291.553 255.723 292.126 255.402 292.636C255.077 293.131 254.666 293.57 254.168 293.953C253.666 294.321 253.073 294.617 252.39 294.843Z" fill="#E64287"/>
<path d="M263.263 296.008L257.671 279.05L260.475 278.126L261.287 280.587L260.81 280.062C261.015 279.253 261.422 278.546 262.031 277.941C262.635 277.321 263.416 276.853 264.373 276.537C265.544 276.151 266.695 276.092 267.827 276.358C268.96 276.625 269.96 277.154 270.828 277.947C271.711 278.734 272.352 279.735 272.753 280.951C273.149 282.151 273.236 283.335 273.015 284.503C272.794 285.671 272.307 286.699 271.556 287.588C270.799 288.46 269.82 289.095 268.62 289.491C267.723 289.786 266.838 289.885 265.963 289.786C265.098 289.667 264.335 289.345 263.674 288.822L263.957 288.072L266.249 295.023L263.263 296.008ZM267.376 286.868C268.06 286.643 268.615 286.283 269.042 285.788C269.468 285.294 269.733 284.718 269.836 284.061C269.955 283.398 269.894 282.702 269.653 281.973C269.413 281.243 269.051 280.655 268.566 280.209C268.092 279.742 267.537 279.436 266.899 279.292C266.257 279.134 265.594 279.167 264.911 279.392C264.257 279.608 263.717 279.963 263.291 280.457C262.879 280.947 262.617 281.53 262.503 282.208C262.4 282.865 262.466 283.551 262.702 284.265C262.942 284.995 263.299 285.593 263.774 286.06C264.263 286.522 264.818 286.827 265.44 286.976C266.077 287.12 266.723 287.084 267.376 286.868Z" fill="#E64287"/>
<path d="M277.074 286.4L271.384 269.145L274.37 268.161L276.775 275.455L276.222 275.157C276.265 274.317 276.551 273.599 277.079 273.004C277.618 272.389 278.327 271.935 279.209 271.645C280.12 271.344 280.991 271.276 281.82 271.441C282.665 271.6 283.402 271.972 284.033 272.556C284.658 273.125 285.124 273.872 285.43 274.799L288.06 282.777L285.074 283.761L282.677 276.491C282.496 275.943 282.235 275.508 281.892 275.183C281.549 274.858 281.152 274.651 280.702 274.564C280.262 274.456 279.792 274.485 279.29 274.651C278.804 274.811 278.408 275.068 278.104 275.421C277.794 275.759 277.598 276.16 277.515 276.626C277.433 277.091 277.482 277.597 277.662 278.144L280.06 285.415L277.074 286.4Z" fill="#E64287"/>
<path d="M290.585 281.944L286.496 269.545L289.482 268.56L293.571 280.96L290.585 281.944ZM286.038 268.155L284.985 264.964L287.971 263.979L289.024 267.17L286.038 268.155Z" fill="#E64287"/>
<path d="M302.39 278.355C301.159 278.761 299.957 278.845 298.784 278.609C297.621 278.352 296.598 277.83 295.715 277.043C294.827 276.241 294.18 275.224 293.774 273.993C293.368 272.763 293.286 271.568 293.528 270.41C293.769 269.252 294.284 268.232 295.071 267.349C295.873 266.461 296.89 265.814 298.12 265.408C299.002 265.118 299.875 265.007 300.74 265.075C301.6 265.129 302.394 265.339 303.121 265.705C303.859 266.052 304.472 266.557 304.96 267.222L302.715 269.226C302.282 268.678 301.729 268.304 301.056 268.105C300.399 267.9 299.721 267.913 299.022 268.144C298.369 268.359 297.837 268.712 297.425 269.201C297.029 269.685 296.779 270.256 296.676 270.914C296.573 271.571 296.641 272.265 296.882 272.994C297.122 273.723 297.479 274.322 297.954 274.789C298.428 275.256 298.968 275.566 299.575 275.72C300.197 275.868 300.834 275.835 301.488 275.62C302.202 275.384 302.762 274.989 303.169 274.434C303.575 273.878 303.787 273.244 303.805 272.531L306.817 272.851C306.804 273.631 306.617 274.391 306.255 275.134C305.889 275.861 305.378 276.51 304.724 277.08C304.064 277.634 303.286 278.059 302.39 278.355Z" fill="#E64287"/>
<path d="M244.745 326.847C243.545 327.242 242.381 327.315 241.253 327.063C240.121 326.796 239.118 326.259 238.246 325.452C237.373 324.645 236.739 323.641 236.343 322.44C235.942 321.225 235.855 320.041 236.081 318.888C236.307 317.735 236.796 316.714 237.548 315.826C238.315 314.933 239.283 314.294 240.453 313.908C241.395 313.597 242.294 313.512 243.148 313.651C244.013 313.77 244.769 314.094 245.415 314.622L245.162 315.388L242.749 308.071L245.735 307.087L251.425 324.341L248.598 325.273L247.809 322.88L248.324 323.367C248.119 324.176 247.696 324.888 247.057 325.503C246.412 326.103 245.642 326.551 244.745 326.847ZM244.162 324.006C244.846 323.781 245.394 323.423 245.805 322.934C246.217 322.444 246.474 321.871 246.577 321.214C246.696 320.551 246.635 319.855 246.394 319.126C246.159 318.412 245.796 317.824 245.307 317.362C244.828 316.879 244.278 316.564 243.656 316.415C243.034 316.266 242.381 316.305 241.697 316.53C241.029 316.751 240.484 317.116 240.062 317.626C239.635 318.12 239.363 318.698 239.244 319.361C239.136 320.003 239.202 320.689 239.443 321.418C239.683 322.148 240.04 322.746 240.514 323.213C241.004 323.675 241.567 323.978 242.204 324.121C242.841 324.265 243.494 324.227 244.162 324.006Z" fill="#E64287"/>
<path d="M260.173 321.759C258.897 322.18 257.685 322.26 256.537 321.998C255.389 321.736 254.387 321.199 253.529 320.387C252.672 319.575 252.045 318.568 251.649 317.368C251.238 316.122 251.141 314.932 251.357 313.8C251.583 312.647 252.067 311.637 252.809 310.769C253.565 309.896 254.521 309.269 255.676 308.888C256.649 308.567 257.552 308.446 258.387 308.525C259.236 308.598 260.012 308.831 260.714 309.223C261.416 309.615 262.024 310.13 262.538 310.77C263.048 311.394 263.44 312.123 263.715 312.959C263.786 313.172 263.843 313.397 263.888 313.635C263.948 313.868 263.975 314.078 263.969 314.265L254.396 317.422L253.645 315.143L261.531 312.542L260.471 314.08C260.377 313.335 260.134 312.725 259.741 312.248C259.363 311.766 258.886 311.443 258.309 311.28C257.748 311.111 257.141 311.134 256.488 311.35C255.865 311.555 255.363 311.898 254.982 312.377C254.596 312.841 254.374 313.42 254.316 314.113C254.268 314.786 254.415 315.538 254.756 316.368C254.946 317.148 255.268 317.792 255.722 318.299C256.186 318.786 256.728 319.104 257.35 319.253C257.987 319.397 258.648 319.356 259.332 319.13C260.015 318.905 260.545 318.57 260.921 318.126C261.312 317.677 261.564 317.164 261.677 316.588L264.484 316.976C264.436 317.649 264.229 318.299 263.863 318.925C263.497 319.551 262.999 320.111 262.37 320.605C261.756 321.094 261.024 321.479 260.173 321.759Z" fill="#E64287"/>
<path d="M272.967 317.54C271.645 317.976 270.387 318.046 269.194 317.748C268.011 317.431 267.059 316.793 266.339 315.834L268.219 314.026C268.769 314.62 269.39 315.022 270.083 315.231C270.79 315.436 271.494 315.423 272.193 315.193C272.74 315.012 273.133 314.748 273.372 314.4C273.61 314.051 273.665 313.68 273.535 313.284C273.454 313.041 273.321 312.866 273.134 312.759C272.957 312.632 272.737 312.553 272.474 312.522C272.222 312.471 271.954 312.45 271.67 312.459L269.454 312.558C268.305 312.6 267.354 312.399 266.602 311.957C265.865 311.509 265.356 310.86 265.075 310.009C264.825 309.249 264.797 308.526 264.991 307.838C265.196 307.13 265.587 306.504 266.166 305.96C266.76 305.41 267.505 304.987 268.401 304.692C269.571 304.306 270.697 304.246 271.779 304.513C272.861 304.779 273.76 305.359 274.475 306.252L272.549 308.075C272.151 307.583 271.646 307.252 271.035 307.083C270.423 306.914 269.806 306.933 269.183 307.138C268.681 307.303 268.324 307.548 268.11 307.871C267.897 308.194 267.85 308.538 267.97 308.903C268.046 309.13 268.171 309.308 268.348 309.435C268.525 309.562 268.737 309.644 268.985 309.68C269.248 309.711 269.539 309.725 269.857 309.721L272.036 309.659C273.154 309.628 274.087 309.825 274.835 310.253C275.597 310.675 276.124 311.327 276.414 312.208C276.66 312.953 276.68 313.679 276.476 314.387C276.266 315.079 275.864 315.7 275.271 316.25C274.677 316.8 273.909 317.23 272.967 317.54Z" fill="#E64287"/>
<path d="M279.866 314.962L275.778 302.563L278.764 301.578L282.852 313.977L279.866 314.962ZM275.319 301.172L274.267 297.981L277.253 296.997L278.305 300.188L275.319 301.172Z" fill="#E64287"/>
<path d="M293.28 316.098C292.353 316.404 291.444 316.535 290.554 316.492C289.664 316.448 288.84 316.248 288.082 315.892C287.344 315.545 286.726 315.05 286.227 314.406L288.662 312.44C289.035 312.958 289.545 313.303 290.192 313.478C290.859 313.662 291.588 313.624 292.378 313.363C292.986 313.163 293.48 312.873 293.861 312.495C294.257 312.112 294.511 311.657 294.624 311.131C294.742 310.621 294.701 310.062 294.501 309.454L293.569 306.627L294.364 307.123C294.184 308.008 293.799 308.758 293.211 309.374C292.622 309.989 291.871 310.447 290.96 310.748C289.805 311.129 288.684 311.203 287.597 310.972C286.51 310.741 285.555 310.247 284.733 309.491C283.91 308.734 283.309 307.778 282.928 306.624C282.542 305.454 282.457 304.327 282.673 303.245C282.889 302.163 283.36 301.216 284.087 300.404C284.808 299.576 285.738 298.975 286.878 298.599C287.805 298.293 288.683 298.223 289.512 298.387C290.351 298.532 291.127 298.891 291.838 299.465L291.676 300.352L290.774 297.617L293.601 296.685L297.486 308.469C297.842 309.548 297.894 310.601 297.643 311.627C297.407 312.648 296.913 313.552 296.162 314.339C295.426 315.121 294.465 315.707 293.28 316.098ZM290.415 307.87C291.053 307.659 291.563 307.339 291.943 306.911C292.335 306.462 292.584 305.941 292.692 305.35C292.8 304.758 292.747 304.135 292.531 303.482C292.321 302.844 291.989 302.322 291.535 301.915C291.091 301.489 290.578 301.212 289.997 301.083C289.43 300.95 288.836 300.986 288.213 301.191C287.59 301.397 287.075 301.727 286.669 302.181C286.263 302.635 286 303.168 285.882 303.779C285.774 304.371 285.825 304.986 286.035 305.624C286.246 306.262 286.57 306.787 287.009 307.198C287.463 307.605 287.981 307.872 288.563 308C289.159 308.124 289.777 308.08 290.415 307.87Z" fill="#E64287"/>
<path d="M300.478 308.165L296.389 295.766L299.193 294.841L299.997 297.28L299.626 296.922C299.669 296.082 299.955 295.365 300.483 294.77C301.021 294.154 301.731 293.701 302.612 293.41C303.524 293.11 304.395 293.042 305.224 293.206C306.068 293.366 306.806 293.737 307.436 294.321C308.062 294.89 308.528 295.638 308.833 296.565L311.464 304.542L308.478 305.527L306.08 298.256C305.9 297.709 305.638 297.273 305.295 296.948C304.952 296.623 304.556 296.417 304.106 296.329C303.666 296.222 303.195 296.251 302.694 296.416C302.208 296.576 301.812 296.833 301.507 297.186C301.198 297.524 301.002 297.926 300.919 298.391C300.837 298.856 300.886 299.362 301.066 299.91L303.464 307.18L300.478 308.165Z" fill="#E64287"/>
<path d="M201.559 60.2847L207.021 48.4263L209.702 49.6613L208.437 52.4079L208.343 51.8096C208.956 51.0526 209.686 50.614 210.534 50.4938C211.382 50.3735 212.25 50.5176 213.136 50.9259C214.11 51.3744 214.85 52.0237 215.357 52.8737C215.864 53.7237 216.036 54.6131 215.872 55.5419L215.035 55.2358C215.834 54.4585 216.703 54.0047 217.644 53.8744C218.592 53.7295 219.538 53.8746 220.482 54.3097C221.325 54.698 221.987 55.2316 222.467 55.9107C222.961 56.5965 223.24 57.3679 223.303 58.2249C223.373 59.0675 223.204 59.932 222.795 60.8185L219.281 68.448L216.426 67.1326L219.629 60.1789C219.87 59.6557 219.983 59.1617 219.968 58.6968C219.953 58.2319 219.825 57.8208 219.585 57.4634C219.351 57.0914 218.994 56.795 218.515 56.5741C218.064 56.3666 217.614 56.2915 217.165 56.3489C216.722 56.3917 216.32 56.5585 215.957 56.8493C215.594 57.1401 215.292 57.5471 215.051 58.0703L211.848 65.024L208.992 63.7087L212.195 56.7549C212.436 56.2317 212.549 55.7377 212.534 55.2729C212.52 54.808 212.385 54.3935 212.129 54.0294C211.896 53.6575 211.546 53.3644 211.081 53.1502C210.631 52.9427 210.181 52.8676 209.732 52.9249C209.289 52.9677 208.886 53.1345 208.523 53.4253C208.16 53.7162 207.859 54.1232 207.618 54.6463L204.414 61.6001L201.559 60.2847Z" fill="#CBFB7C"/>
<path d="M225.806 71.7703C224.89 71.3486 224.184 70.777 223.689 70.0554C223.208 69.3406 222.953 68.5362 222.924 67.6423C222.91 66.755 223.127 65.8245 223.576 64.8508L226.92 57.5919L229.775 58.9072L226.542 65.9264C226.314 66.4205 226.208 66.9 226.223 67.3648C226.259 67.8219 226.409 68.2431 226.671 68.6284C226.956 69.0059 227.33 69.3017 227.795 69.5159C228.26 69.7301 228.721 69.8192 229.178 69.7831C229.642 69.7325 230.063 69.5651 230.44 69.2809C230.818 68.9968 231.127 68.5932 231.368 68.07L234.571 61.1162L237.426 62.4316L231.964 74.29L229.261 73.045L230.336 70.7125L230.385 71.2371C229.774 71.8366 229.065 72.1707 228.258 72.2395C227.466 72.3149 226.648 72.1586 225.806 71.7703Z" fill="#CBFB7C"/>
<path d="M239.011 77.8528C237.746 77.2704 236.779 76.4638 236.109 75.4329C235.46 74.3941 235.199 73.2785 235.325 72.086L237.933 72.0455C237.931 72.8545 238.111 73.5718 238.475 74.1974C238.853 74.8296 239.376 75.2996 240.045 75.6076C240.568 75.8485 241.036 75.9231 241.448 75.8311C241.86 75.7392 242.153 75.5043 242.327 75.1264C242.435 74.8939 242.456 74.6749 242.392 74.4693C242.35 74.2559 242.243 74.0481 242.072 73.846C241.922 73.636 241.74 73.4378 241.526 73.2513L239.837 71.8127C238.969 71.0602 238.41 70.2655 238.161 69.4287C237.927 68.5986 237.997 67.7766 238.372 66.9628C238.707 66.2362 239.18 65.6877 239.791 65.3173C240.423 64.9392 241.136 64.7481 241.931 64.7441C242.74 64.7469 243.573 64.9457 244.43 65.3407C245.549 65.8561 246.414 66.5801 247.023 67.5128C247.633 68.4454 247.896 69.4822 247.81 70.6233L245.159 70.6437C245.203 70.0123 245.059 69.4263 244.726 68.8857C244.394 68.3451 243.93 67.9375 243.334 67.6631C242.855 67.4422 242.427 67.3771 242.05 67.4679C241.674 67.5587 241.405 67.7785 241.244 68.1273C241.144 68.3453 241.115 68.561 241.158 68.7744C241.2 68.9878 241.3 69.1922 241.456 69.3877C241.628 69.5898 241.831 69.7981 242.067 70.0124L243.702 71.4528C244.542 72.1919 245.09 72.9726 245.345 73.7949C245.615 74.6239 245.556 75.4598 245.168 76.3027C244.84 77.0148 244.36 77.5599 243.728 77.9381C243.102 78.3017 242.385 78.4822 241.576 78.4795C240.767 78.4767 239.912 78.2678 239.011 77.8528Z" fill="#CBFB7C"/>
<path d="M245.816 80.6705L251.278 68.812L254.134 70.1274L248.672 81.9858L245.816 80.6705ZM251.891 67.4823L253.297 64.4305L256.152 65.7459L254.746 68.7977L251.891 67.4823Z" fill="#CBFB7C"/>
<path d="M256.899 86.0926C255.722 85.5504 254.785 84.7929 254.088 83.8201C253.412 82.8395 253.02 81.7603 252.91 80.5825C252.808 79.3902 253.028 78.2055 253.57 77.0284C254.112 75.8513 254.866 74.9215 255.832 74.2391C256.798 73.5567 257.87 73.1609 259.048 73.0516C260.24 72.949 261.425 73.1688 262.602 73.711C263.445 74.0992 264.16 74.6133 264.746 75.2532C265.338 75.8785 265.776 76.5733 266.058 77.3374C266.361 78.0937 266.465 78.8815 266.37 79.7007L263.361 79.6359C263.418 78.9397 263.268 78.2894 262.912 77.6851C262.571 77.0875 262.066 76.6348 261.397 76.3268C260.772 76.039 260.143 75.9339 259.508 76.0115C258.888 76.0957 258.316 76.3431 257.792 76.7536C257.268 77.1642 256.846 77.7182 256.524 78.4158C256.203 79.1133 256.057 79.7945 256.085 80.4594C256.114 81.1243 256.297 81.7198 256.636 82.2459C256.99 82.7786 257.479 83.1889 258.104 83.4768C258.787 83.7914 259.466 83.8842 260.142 83.7552C260.818 83.6262 261.406 83.3067 261.905 82.7967L263.89 85.0849C263.349 85.6463 262.694 86.0754 261.923 86.3721C261.159 86.6543 260.343 86.7806 259.476 86.7511C258.615 86.7071 257.756 86.4876 256.899 86.0926Z" fill="#CBFB7C"/>
</svg>
