<svg width="515" height="410" viewBox="0 0 515 410" fill="none" xmlns="http://www.w3.org/2000/svg">
<rect width="515" height="410" fill="white"/>
<path d="M301.111 292.959C301.111 346.579 257.711 390.046 204.174 390.046C150.637 390.046 107.236 346.579 107.236 292.959C107.236 239.339 150.637 195.872 204.174 195.872C257.711 195.872 301.111 239.339 301.111 292.959Z" fill="#CBFB7C"/>
<path d="M356.731 14.4297L377.167 38.0289L406.211 26.6443L413.356 57.0519L444.356 60.4899L436.573 90.7398L462.427 108.213L441.499 131.375L456.285 158.881L427.007 169.649L427.335 200.886L396.414 196.793L382.212 224.605L356.731 206.589L331.251 224.605L317.048 196.793L286.127 200.886L286.456 169.649L257.178 158.881L271.963 131.375L251.035 108.213L276.889 90.7398L269.106 60.4899L300.107 57.0519L307.251 26.6443L336.296 38.0289L356.731 14.4297Z" fill="#683EE0"/>
<path d="M313.164 355.797C309.781 352.558 309.66 347.184 312.895 343.796L441.172 209.415C442.153 208.387 443.376 207.623 444.73 207.192L503.947 188.333C510.292 186.312 516.379 192.071 514.725 198.53L499.176 259.278C498.815 260.689 498.097 261.983 497.092 263.036L368.853 397.377C365.618 400.766 360.253 400.887 356.87 397.647L313.164 355.797Z" fill="#E64287"/>
<path d="M253.128 10.0332C259.628 9.47038 264.299 16.1661 261.536 22.0855L192.33 170.33C189.567 176.249 181.441 176.953 177.705 171.596L84.1224 37.4473C80.3856 32.0907 83.8399 24.6915 90.34 24.1287L253.128 10.0332Z" fill="#E64287"/>
<path fill-rule="evenodd" clip-rule="evenodd" d="M140.139 155.778C144.522 158.841 145.597 164.882 142.539 169.272C133.554 182.17 118.805 192.712 103.175 199.787C97.3711 219.082 81.2139 233.252 59.1469 239.735C57.493 240.221 55.834 240.639 54.1264 240.951C58.2577 251.645 58.1725 262.109 54.9012 272.107C49.5791 288.373 33.9767 303.882 10.42 305.697C5.09121 306.108 0.438995 302.114 0.0289883 296.777C-0.381019 291.44 3.60644 286.781 8.93524 286.37C24.1311 285.199 33.443 275.442 36.5093 266.07C38.7363 259.264 38.5792 252.363 34.5271 244.517C34.3546 244.282 34.1159 243.963 33.8071 243.553C33.6402 243.331 33.4556 243.087 33.2585 242.826C32.6869 242.069 32.0111 241.175 31.3635 240.301C30.5079 239.148 29.5504 237.83 28.8102 236.7C28.4681 236.179 27.9889 235.421 27.5872 234.617C27.4126 234.268 27.0261 233.469 26.7505 232.442C26.6153 231.938 26.3855 230.947 26.4014 229.686C26.4163 228.495 26.6688 226.015 28.5543 223.664C29.9311 221.947 31.5338 221.131 32.4292 220.762C33.3722 220.374 34.1814 220.216 34.6496 220.143C35.5721 220 36.3129 220.024 36.6093 220.037C37.2756 220.066 37.8195 220.157 38.0298 220.193C38.5423 220.282 39.0389 220.4 39.367 220.481C40.0865 220.658 40.9369 220.895 41.6721 221.104C42.387 221.308 43.1014 221.518 43.6426 221.677L43.7403 221.706C43.9375 221.764 44.1002 221.811 44.2313 221.849C47.7878 222.483 50.2598 222.145 53.6992 221.134C65.4118 217.693 73.8663 211.897 79.1884 204.862C76.8496 204.483 74.4227 203.717 72.0991 202.339C64.5817 197.881 56.9403 191.232 50.7492 184.307C44.7135 177.556 39.1312 169.515 36.8782 162.002C36.0716 159.313 35.8217 156.308 36.6266 153.253C37.4382 150.174 39.1384 147.744 41.1109 145.95C44.7487 142.64 49.4864 141.293 53.122 140.661C60.6992 139.346 69.82 140.116 76.2812 141.615C92.5211 145.384 100.023 158.366 102.999 169.786C103.655 172.302 104.128 174.854 104.444 177.375C113.895 171.888 121.774 165.203 126.666 158.181C129.724 153.791 135.756 152.715 140.139 155.778ZM85.6046 185.543C85.5975 182.225 85.2437 178.409 84.2723 174.681C82.2724 167.007 78.4019 162.005 71.9123 160.499C67.4059 159.453 61.187 159.017 56.7857 159.702C58.4491 162.947 61.2897 167.039 65.1678 171.376C70.3512 177.174 76.5038 182.424 81.9593 185.659C81.942 185.649 81.9452 185.649 81.9717 185.657C82.1211 185.7 83.0109 185.958 85.1249 185.625C85.2846 185.6 85.4446 185.572 85.6046 185.543ZM44.5755 221.947C44.578 221.948 44.5532 221.942 44.4938 221.925C44.5433 221.938 44.5729 221.946 44.5755 221.947ZM34.7482 244.827C34.7482 244.827 34.7309 244.803 34.7037 244.762C34.7358 244.808 34.7482 244.827 34.7482 244.827Z" fill="#683EE0"/>
<path d="M380.171 341.211L370.684 332.241L372.844 329.957L382.331 338.927L380.171 341.211ZM369.621 331.235L367.179 328.927L369.339 326.642L371.781 328.951L369.621 331.235Z" fill="#CBFB7C"/>
<path d="M384.325 336.818L371.125 324.335L373.285 322.051L386.486 334.533L384.325 336.818Z" fill="#CBFB7C"/>
<path d="M388.48 332.424L375.279 319.941L377.439 317.657L390.64 330.139L388.48 332.424Z" fill="#CBFB7C"/>
<path d="M396.043 324.845C395.35 325.577 394.583 326.063 393.741 326.302C392.909 326.529 392.066 326.513 391.21 326.254C390.365 325.983 389.553 325.479 388.774 324.743L382.967 319.252L385.127 316.967L390.742 322.277C391.137 322.651 391.557 322.905 392.003 323.04C392.447 323.152 392.894 323.145 393.343 323.019C393.792 322.871 394.192 322.611 394.544 322.239C394.896 321.867 395.127 321.458 395.24 321.014C395.34 320.558 395.316 320.106 395.168 319.658C395.019 319.209 394.736 318.787 394.317 318.391L388.754 313.131L390.915 310.846L400.401 319.817L398.356 321.979L396.491 320.215L397.003 320.336C397.376 321.107 397.465 321.885 397.272 322.672C397.09 323.446 396.68 324.171 396.043 324.845Z" fill="#CBFB7C"/>
<path d="M406.032 314.281C405.075 315.293 404.001 315.951 402.81 316.256C401.618 316.538 400.478 316.429 399.389 315.927L400.185 313.443C400.951 313.705 401.688 313.763 402.397 313.619C403.117 313.463 403.73 313.118 404.236 312.583C404.631 312.164 404.852 311.745 404.896 311.325C404.941 310.905 404.813 310.552 404.51 310.266C404.324 310.09 404.124 310 403.908 309.995C403.693 309.967 403.462 310.001 403.215 310.099C402.968 310.174 402.722 310.282 402.477 310.425L400.574 311.565C399.583 312.147 398.651 312.422 397.779 312.39C396.917 312.346 396.161 312.017 395.51 311.401C394.929 310.851 394.561 310.228 394.405 309.53C394.249 308.81 394.297 308.073 394.547 307.319C394.809 306.554 395.264 305.828 395.912 305.142C396.759 304.247 397.721 303.66 398.8 303.381C399.879 303.101 400.945 303.185 401.999 303.631L401.169 306.149C400.585 305.905 399.984 305.854 399.366 305.996C398.747 306.138 398.212 306.447 397.762 306.924C397.399 307.308 397.2 307.692 397.166 308.078C397.131 308.464 397.254 308.789 397.533 309.052C397.707 309.217 397.902 309.314 398.118 309.342C398.334 309.37 398.559 309.341 398.795 309.255C399.041 309.157 399.303 309.031 399.582 308.876L401.47 307.788C402.439 307.229 403.354 306.96 404.215 306.981C405.086 306.991 405.859 307.314 406.534 307.952C407.103 308.49 407.466 309.12 407.622 309.84C407.766 310.549 407.708 311.286 407.446 312.052C407.185 312.817 406.713 313.561 406.032 314.281Z" fill="#CBFB7C"/>
<path d="M415.073 304.51C414.062 305.579 412.985 306.136 411.843 306.179C410.701 306.2 409.595 305.704 408.525 304.693L404.34 300.736L402.79 302.375L400.75 300.445L400.915 300.271C401.354 299.806 401.573 299.33 401.571 298.844C401.568 298.357 401.335 297.894 400.87 297.454L400.137 296.762L402.297 294.477L404.46 296.522L406.521 294.342L408.561 296.271L406.5 298.451L410.563 302.293C410.877 302.59 411.194 302.79 411.514 302.895C411.845 302.987 412.178 302.972 412.514 302.85C412.861 302.715 413.211 302.462 413.563 302.09C413.639 302.009 413.722 301.91 413.809 301.795C413.907 301.668 414 301.546 414.087 301.431L416.04 303.277C415.91 303.462 415.757 303.67 415.583 303.901C415.408 304.133 415.238 304.335 415.073 304.51Z" fill="#CBFB7C"/>
<path d="M417.691 301.532L408.204 292.562L410.233 290.417L412.343 292.412L411.864 292.29C411.363 291.398 411.194 290.588 411.354 289.859C411.526 289.119 411.925 288.417 412.552 287.754L413.079 287.196L415.102 289.109L414.327 289.929C413.712 290.58 413.42 291.295 413.454 292.075C413.475 292.844 413.846 293.57 414.567 294.251L419.851 299.248L417.691 301.532Z" fill="#CBFB7C"/>
<path d="M426.788 292.33C426.162 292.993 425.507 293.464 424.824 293.743C424.142 294.023 423.471 294.104 422.811 293.986C422.14 293.858 421.531 293.535 420.984 293.019C420.461 292.524 420.106 291.968 419.919 291.351C419.72 290.723 419.712 290.032 419.895 289.28C420.078 288.528 420.463 287.725 421.05 286.871L423.479 283.289L425.223 284.938L423.154 288.035C422.806 288.565 422.633 289.04 422.633 289.458C422.634 289.877 422.803 290.246 423.14 290.565C423.465 290.873 423.842 290.998 424.271 290.941C424.699 290.861 425.088 290.635 425.44 290.263C425.891 289.786 426.188 289.274 426.331 288.727C426.473 288.157 426.458 287.603 426.284 287.064C426.122 286.514 425.826 286.036 425.395 285.629L422.954 283.321C422.547 282.936 422.056 282.78 421.481 282.853C420.905 282.903 420.37 283.189 419.875 283.712C419.413 284.201 419.135 284.763 419.04 285.4C418.944 286.013 419.028 286.611 419.293 287.192L416.622 288.2C416.298 287.542 416.143 286.844 416.156 286.108C416.169 285.35 416.329 284.598 416.636 283.854C416.944 283.11 417.4 282.418 418.005 281.778C418.741 280.999 419.535 280.451 420.386 280.133C421.226 279.804 422.055 279.718 422.875 279.877C423.693 280.012 424.44 280.399 425.114 281.036L431.427 287.005L429.382 289.168L427.76 287.634L428.187 287.113C428.363 287.742 428.431 288.357 428.392 288.958C428.34 289.548 428.187 290.129 427.931 290.702C427.664 291.264 427.283 291.807 426.788 292.33Z" fill="#CBFB7C"/>
<path d="M437.456 280.839C436.445 281.908 435.368 282.464 434.226 282.508C433.084 282.528 431.978 282.033 430.908 281.022L426.723 277.064L425.173 278.703L423.133 276.774L423.298 276.6C423.737 276.135 423.956 275.659 423.954 275.172C423.952 274.686 423.718 274.223 423.253 273.783L422.52 273.09L424.681 270.806L426.843 272.851L428.904 270.671L430.944 272.6L428.883 274.78L432.946 278.622C433.26 278.919 433.577 279.119 433.897 279.223C434.228 279.316 434.561 279.301 434.897 279.178C435.244 279.044 435.594 278.791 435.946 278.419C436.023 278.338 436.105 278.239 436.192 278.124C436.29 277.996 436.383 277.875 436.47 277.759L438.424 279.606C438.293 279.791 438.14 279.999 437.966 280.23C437.791 280.461 437.621 280.664 437.456 280.839Z" fill="#CBFB7C"/>
<path d="M440.074 277.861L430.587 268.891L432.748 266.606L442.234 275.576L440.074 277.861ZM429.524 267.885L427.082 265.576L429.242 263.292L431.684 265.6L429.524 267.885Z" fill="#CBFB7C"/>
<path d="M448.824 269.026C447.945 269.956 446.927 270.602 445.771 270.962C444.627 271.311 443.468 271.361 442.295 271.11C441.133 270.849 440.076 270.267 439.122 269.366C438.169 268.464 437.529 267.441 437.203 266.295C436.888 265.139 436.872 263.979 437.157 262.816C437.441 261.654 438.028 260.602 438.919 259.66C439.798 258.73 440.81 258.091 441.955 257.742C443.1 257.393 444.253 257.349 445.415 257.611C446.576 257.85 447.639 258.426 448.604 259.339C449.557 260.24 450.192 261.269 450.507 262.426C450.822 263.583 450.838 264.743 450.553 265.905C450.269 267.068 449.692 268.108 448.824 269.026ZM446.731 267.048C447.215 266.536 447.516 265.973 447.635 265.359C447.764 264.732 447.719 264.106 447.497 263.478C447.275 262.828 446.891 262.244 446.345 261.728C445.787 261.2 445.189 260.854 444.55 260.691C443.911 260.505 443.283 260.495 442.665 260.659C442.046 260.801 441.495 261.128 441.012 261.639C440.517 262.162 440.21 262.742 440.092 263.379C439.963 264.006 440.003 264.638 440.214 265.278C440.423 265.894 440.807 266.466 441.365 266.994C441.911 267.511 442.51 267.867 443.161 268.064C443.811 268.238 444.445 268.243 445.062 268.079C445.68 267.915 446.237 267.571 446.731 267.048Z" fill="#CBFB7C"/>
<path d="M454.985 262.091L445.499 253.121L447.527 250.976L449.393 252.74L448.897 252.602C448.536 251.842 448.447 251.075 448.629 250.3C448.81 249.503 449.219 248.767 449.857 248.093C450.517 247.395 451.25 246.922 452.058 246.673C452.877 246.412 453.703 246.389 454.535 246.604C455.356 246.807 456.121 247.244 456.83 247.915L462.933 253.686L460.773 255.97L455.21 250.71C454.792 250.314 454.354 250.055 453.898 249.932C453.442 249.809 452.995 249.816 452.558 249.953C452.119 250.067 451.719 250.316 451.356 250.699C451.004 251.071 450.778 251.485 450.678 251.941C450.566 252.385 450.584 252.832 450.732 253.28C450.881 253.729 451.164 254.151 451.583 254.547L457.145 259.807L454.985 262.091Z" fill="#CBFB7C"/>
<path d="M166.816 306.554C165.889 306.86 164.98 306.991 164.09 306.947C163.2 306.904 162.375 306.704 161.618 306.347C160.88 306.001 160.262 305.506 159.763 304.861L162.198 302.896C162.571 303.413 163.081 303.759 163.728 303.933C164.395 304.117 165.124 304.079 165.914 303.819C166.522 303.618 167.016 303.329 167.397 302.951C167.792 302.567 168.047 302.113 168.16 301.587C168.278 301.076 168.237 300.517 168.036 299.909L167.104 297.083L167.9 297.579C167.72 298.464 167.335 299.214 166.746 299.829C166.157 300.445 165.407 300.903 164.495 301.203C163.341 301.584 162.22 301.659 161.133 301.428C160.045 301.197 159.091 300.703 158.269 299.946C157.446 299.19 156.845 298.234 156.464 297.079C156.078 295.909 155.993 294.783 156.209 293.701C156.425 292.619 156.896 291.672 157.622 290.86C158.343 290.032 159.274 289.43 160.413 289.055C161.34 288.749 162.218 288.678 163.048 288.843C163.887 288.987 164.663 289.347 165.374 289.921L165.212 290.808L164.31 288.073L167.136 287.141L171.022 298.925C171.378 300.004 171.43 301.056 171.179 302.082C170.943 303.104 170.449 304.008 169.698 304.795C168.962 305.577 168.001 306.163 166.816 306.554ZM163.951 298.325C164.589 298.115 165.098 297.795 165.479 297.366C165.87 296.917 166.12 296.397 166.228 295.805C166.336 295.214 166.283 294.591 166.067 293.938C165.857 293.299 165.524 292.777 165.07 292.371C164.626 291.945 164.114 291.667 163.532 291.539C162.966 291.405 162.371 291.442 161.748 291.647C161.125 291.852 160.611 292.182 160.205 292.636C159.798 293.09 159.536 293.623 159.418 294.235C159.31 294.827 159.361 295.442 159.571 296.08C159.782 296.718 160.106 297.243 160.545 297.654C160.999 298.06 161.517 298.327 162.098 298.456C162.695 298.579 163.312 298.536 163.951 298.325Z" fill="#E64287"/>
<path d="M174.014 298.621L169.925 286.221L172.728 285.297L173.638 288.055L173.275 287.72C173.258 286.698 173.493 285.904 173.981 285.339C174.483 284.769 175.168 284.341 176.034 284.055L176.763 283.815L177.635 286.459L176.564 286.812C175.713 287.093 175.117 287.584 174.776 288.286C174.429 288.973 174.411 289.788 174.722 290.73L176.999 297.636L174.014 298.621Z" fill="#E64287"/>
<path d="M186.39 294.843C185.524 295.128 184.724 295.232 183.99 295.154C183.257 295.076 182.628 294.828 182.103 294.412C181.573 293.98 181.19 293.407 180.955 292.693C180.729 292.009 180.681 291.351 180.809 290.719C180.933 290.072 181.254 289.46 181.772 288.885C182.29 288.31 183.01 287.786 183.932 287.314L187.771 285.315L188.523 287.594L185.231 289.337C184.673 289.638 184.295 289.974 184.097 290.342C183.898 290.711 183.872 291.116 184.017 291.556C184.157 291.982 184.43 292.271 184.834 292.424C185.248 292.557 185.699 292.543 186.185 292.383C186.808 292.178 187.312 291.868 187.698 291.454C188.094 291.021 188.344 290.526 188.447 289.969C188.565 289.408 188.531 288.846 188.346 288.284L187.294 285.093C187.118 284.561 186.76 284.191 186.22 283.982C185.689 283.752 185.082 283.75 184.398 283.976C183.76 284.186 183.248 284.549 182.862 285.064C182.486 285.558 182.276 286.124 182.234 286.762L179.404 286.381C179.432 285.647 179.626 284.96 179.988 284.318C180.359 283.657 180.857 283.071 181.481 282.562C182.105 282.053 182.835 281.661 183.67 281.385C184.688 281.05 185.648 280.944 186.548 281.068C187.443 281.177 188.214 281.496 188.86 282.024C189.516 282.533 189.989 283.227 190.28 284.109L193.001 292.359L190.174 293.292L189.475 291.172L190.098 290.916C189.955 291.553 189.723 292.126 189.402 292.636C189.077 293.131 188.666 293.57 188.168 293.953C187.666 294.321 187.073 294.617 186.39 294.843Z" fill="#E64287"/>
<path d="M197.263 296.008L191.671 279.05L194.475 278.126L195.287 280.587L194.81 280.062C195.015 279.253 195.422 278.546 196.031 277.941C196.635 277.321 197.416 276.853 198.373 276.537C199.543 276.151 200.695 276.092 201.827 276.358C202.96 276.625 203.96 277.154 204.828 277.947C205.711 278.734 206.352 279.735 206.753 280.951C207.149 282.151 207.236 283.335 207.015 284.503C206.794 285.671 206.307 286.699 205.556 287.588C204.799 288.46 203.82 289.095 202.62 289.491C201.723 289.786 200.838 289.885 199.963 289.786C199.098 289.667 198.335 289.345 197.674 288.822L197.957 288.072L200.249 295.023L197.263 296.008ZM201.376 286.868C202.06 286.643 202.615 286.283 203.042 285.788C203.468 285.294 203.733 284.718 203.836 284.061C203.955 283.398 203.894 282.702 203.653 281.973C203.413 281.243 203.051 280.655 202.566 280.209C202.092 279.742 201.537 279.436 200.899 279.292C200.257 279.134 199.595 279.167 198.911 279.392C198.257 279.608 197.717 279.963 197.291 280.457C196.879 280.947 196.617 281.53 196.503 282.208C196.4 282.865 196.466 283.551 196.702 284.265C196.942 284.995 197.299 285.593 197.774 286.06C198.263 286.522 198.818 286.827 199.44 286.976C200.077 287.12 200.723 287.084 201.376 286.868Z" fill="#E64287"/>
<path d="M211.074 286.4L205.384 269.145L208.37 268.161L210.775 275.455L210.222 275.157C210.265 274.317 210.551 273.599 211.079 273.004C211.618 272.389 212.327 271.935 213.209 271.645C214.12 271.344 214.991 271.276 215.82 271.441C216.665 271.6 217.402 271.972 218.033 272.556C218.658 273.125 219.124 273.872 219.43 274.799L222.06 282.777L219.074 283.761L216.677 276.491C216.496 275.943 216.235 275.508 215.892 275.183C215.549 274.858 215.152 274.651 214.702 274.564C214.262 274.456 213.792 274.485 213.29 274.651C212.804 274.811 212.408 275.068 212.104 275.421C211.794 275.759 211.598 276.16 211.515 276.626C211.433 277.091 211.482 277.597 211.662 278.144L214.06 285.415L211.074 286.4Z" fill="#E64287"/>
<path d="M224.585 281.944L220.496 269.545L223.482 268.56L227.571 280.96L224.585 281.944ZM220.038 268.155L218.985 264.964L221.971 263.979L223.024 267.17L220.038 268.155Z" fill="#E64287"/>
<path d="M236.39 278.355C235.159 278.761 233.957 278.845 232.784 278.609C231.621 278.352 230.598 277.83 229.715 277.043C228.827 276.241 228.18 275.224 227.774 273.993C227.368 272.763 227.286 271.568 227.528 270.41C227.769 269.252 228.284 268.232 229.071 267.349C229.873 266.461 230.89 265.814 232.12 265.408C233.002 265.118 233.875 265.007 234.74 265.075C235.6 265.129 236.394 265.339 237.121 265.705C237.859 266.052 238.472 266.557 238.96 267.222L236.715 269.226C236.282 268.678 235.729 268.304 235.056 268.105C234.399 267.9 233.721 267.913 233.022 268.144C232.369 268.359 231.837 268.712 231.425 269.201C231.029 269.685 230.779 270.256 230.676 270.914C230.573 271.571 230.641 272.265 230.882 272.994C231.122 273.723 231.479 274.322 231.954 274.789C232.428 275.256 232.968 275.566 233.575 275.72C234.197 275.868 234.834 275.835 235.488 275.62C236.202 275.384 236.762 274.989 237.169 274.434C237.575 273.878 237.787 273.244 237.805 272.531L240.817 272.851C240.804 273.631 240.617 274.391 240.255 275.134C239.889 275.861 239.378 276.51 238.724 277.08C238.064 277.634 237.286 278.059 236.39 278.355Z" fill="#E64287"/>
<path d="M178.745 326.847C177.545 327.242 176.381 327.315 175.253 327.063C174.121 326.796 173.118 326.259 172.246 325.452C171.373 324.645 170.739 323.641 170.343 322.44C169.942 321.225 169.855 320.041 170.081 318.888C170.307 317.735 170.796 316.714 171.548 315.826C172.315 314.933 173.283 314.294 174.453 313.908C175.395 313.597 176.294 313.512 177.148 313.651C178.013 313.77 178.769 314.094 179.415 314.622L179.162 315.388L176.749 308.071L179.735 307.087L185.425 324.341L182.598 325.273L181.809 322.88L182.324 323.367C182.119 324.176 181.696 324.888 181.057 325.503C180.412 326.103 179.642 326.551 178.745 326.847ZM178.162 324.006C178.846 323.781 179.394 323.423 179.805 322.934C180.217 322.444 180.474 321.871 180.577 321.214C180.696 320.551 180.635 319.855 180.394 319.126C180.159 318.412 179.796 317.824 179.307 317.362C178.828 316.879 178.278 316.564 177.656 316.415C177.034 316.266 176.381 316.305 175.697 316.53C175.029 316.751 174.484 317.116 174.062 317.626C173.635 318.12 173.363 318.698 173.244 319.361C173.136 320.003 173.202 320.689 173.443 321.418C173.683 322.148 174.04 322.746 174.514 323.213C175.004 323.675 175.567 323.978 176.204 324.121C176.841 324.265 177.494 324.227 178.162 324.006Z" fill="#E64287"/>
<path d="M194.173 321.759C192.897 322.18 191.685 322.26 190.537 321.998C189.389 321.736 188.387 321.199 187.529 320.387C186.672 319.575 186.045 318.568 185.649 317.368C185.238 316.122 185.141 314.932 185.357 313.8C185.583 312.647 186.067 311.636 186.809 310.769C187.565 309.896 188.521 309.269 189.676 308.888C190.649 308.567 191.552 308.446 192.387 308.525C193.236 308.598 194.012 308.831 194.714 309.223C195.416 309.615 196.024 310.13 196.538 310.77C197.048 311.394 197.44 312.123 197.715 312.959C197.786 313.172 197.843 313.397 197.888 313.635C197.948 313.868 197.975 314.078 197.969 314.265L188.396 317.422L187.645 315.143L195.531 312.542L194.471 314.08C194.377 313.335 194.134 312.725 193.741 312.248C193.363 311.766 192.886 311.443 192.309 311.28C191.748 311.111 191.141 311.134 190.488 311.35C189.865 311.555 189.363 311.898 188.982 312.377C188.596 312.841 188.374 313.42 188.316 314.113C188.268 314.786 188.415 315.537 188.756 316.368C188.946 317.148 189.268 317.792 189.722 318.299C190.186 318.786 190.728 319.104 191.35 319.253C191.987 319.397 192.648 319.356 193.332 319.13C194.015 318.905 194.545 318.57 194.921 318.126C195.312 317.677 195.564 317.164 195.677 316.588L198.484 316.976C198.436 317.649 198.229 318.299 197.863 318.925C197.497 319.551 196.999 320.111 196.37 320.605C195.756 321.094 195.024 321.479 194.173 321.759Z" fill="#E64287"/>
<path d="M206.967 317.54C205.645 317.976 204.387 318.046 203.194 317.748C202.011 317.431 201.059 316.793 200.339 315.834L202.219 314.026C202.769 314.62 203.39 315.022 204.083 315.231C204.79 315.436 205.494 315.423 206.193 315.193C206.74 315.012 207.133 314.748 207.372 314.4C207.61 314.051 207.665 313.68 207.535 313.284C207.454 313.041 207.321 312.866 207.134 312.759C206.957 312.632 206.737 312.553 206.474 312.522C206.222 312.471 205.954 312.45 205.67 312.459L203.454 312.558C202.305 312.6 201.354 312.399 200.602 311.957C199.865 311.509 199.356 310.86 199.075 310.009C198.825 309.249 198.797 308.526 198.991 307.838C199.196 307.13 199.587 306.504 200.166 305.96C200.76 305.41 201.505 304.987 202.401 304.692C203.571 304.306 204.697 304.246 205.779 304.513C206.861 304.779 207.76 305.359 208.475 306.252L206.549 308.075C206.151 307.583 205.646 307.252 205.035 307.083C204.423 306.914 203.806 306.933 203.183 307.138C202.681 307.303 202.324 307.548 202.11 307.871C201.897 308.194 201.85 308.538 201.97 308.903C202.046 309.13 202.171 309.308 202.348 309.435C202.525 309.562 202.737 309.644 202.985 309.68C203.248 309.711 203.539 309.725 203.857 309.721L206.036 309.659C207.154 309.628 208.087 309.825 208.835 310.253C209.597 310.675 210.124 311.327 210.414 312.208C210.66 312.953 210.68 313.679 210.476 314.387C210.266 315.079 209.864 315.7 209.271 316.25C208.677 316.8 207.909 317.23 206.967 317.54Z" fill="#E64287"/>
<path d="M213.866 314.962L209.778 302.563L212.764 301.578L216.852 313.977L213.866 314.962ZM209.319 301.172L208.267 297.981L211.253 296.997L212.305 300.188L209.319 301.172Z" fill="#E64287"/>
<path d="M227.28 316.098C226.353 316.404 225.444 316.535 224.554 316.492C223.664 316.448 222.84 316.248 222.082 315.892C221.344 315.545 220.726 315.05 220.227 314.406L222.662 312.44C223.035 312.958 223.545 313.303 224.192 313.478C224.859 313.662 225.588 313.624 226.378 313.363C226.986 313.163 227.48 312.873 227.861 312.495C228.257 312.112 228.511 311.657 228.624 311.131C228.742 310.621 228.701 310.062 228.501 309.454L227.569 306.627L228.364 307.123C228.184 308.008 227.799 308.758 227.211 309.374C226.622 309.989 225.871 310.447 224.96 310.748C223.805 311.129 222.684 311.203 221.597 310.972C220.51 310.741 219.555 310.247 218.733 309.491C217.91 308.734 217.309 307.778 216.928 306.624C216.542 305.454 216.457 304.327 216.673 303.245C216.889 302.163 217.36 301.216 218.087 300.404C218.808 299.576 219.738 298.975 220.878 298.599C221.805 298.293 222.683 298.223 223.512 298.387C224.351 298.532 225.127 298.891 225.838 299.465L225.676 300.352L224.774 297.617L227.601 296.685L231.486 308.469C231.842 309.548 231.894 310.601 231.643 311.627C231.407 312.648 230.913 313.552 230.162 314.339C229.426 315.121 228.465 315.707 227.28 316.098ZM224.415 307.87C225.053 307.659 225.563 307.339 225.943 306.911C226.335 306.462 226.584 305.941 226.692 305.35C226.8 304.758 226.747 304.135 226.531 303.482C226.321 302.844 225.989 302.322 225.535 301.915C225.091 301.489 224.578 301.212 223.997 301.083C223.43 300.95 222.836 300.986 222.213 301.191C221.59 301.397 221.075 301.727 220.669 302.181C220.263 302.635 220 303.168 219.882 303.779C219.774 304.371 219.825 304.986 220.035 305.624C220.246 306.262 220.571 306.787 221.009 307.198C221.463 307.605 221.981 307.872 222.563 308C223.159 308.124 223.777 308.08 224.415 307.87Z" fill="#E64287"/>
<path d="M234.478 308.165L230.389 295.766L233.193 294.841L233.997 297.28L233.626 296.922C233.669 296.082 233.955 295.365 234.483 294.77C235.021 294.154 235.731 293.701 236.612 293.41C237.524 293.11 238.395 293.042 239.224 293.206C240.068 293.366 240.806 293.737 241.436 294.321C242.062 294.89 242.528 295.638 242.833 296.565L245.464 304.542L242.478 305.527L240.08 298.256C239.9 297.709 239.638 297.273 239.295 296.948C238.952 296.623 238.556 296.417 238.106 296.329C237.666 296.222 237.195 296.251 236.694 296.416C236.208 296.576 235.812 296.833 235.507 297.186C235.198 297.524 235.002 297.926 234.919 298.391C234.837 298.856 234.886 299.362 235.066 299.91L237.464 307.18L234.478 308.165Z" fill="#E64287"/>
<path d="M135.559 60.2847L141.021 48.4263L143.702 49.6613L142.437 52.4079L142.343 51.8096C142.956 51.0526 143.686 50.614 144.534 50.4938C145.382 50.3735 146.25 50.5176 147.136 50.9259C148.11 51.3744 148.85 52.0237 149.357 52.8737C149.864 53.7237 150.036 54.6131 149.872 55.5419L149.035 55.2358C149.834 54.4585 150.703 54.0047 151.644 53.8744C152.592 53.7295 153.538 53.8746 154.482 54.3097C155.325 54.698 155.987 55.2316 156.467 55.9107C156.961 56.5965 157.24 57.3679 157.303 58.2249C157.373 59.0675 157.204 59.932 156.795 60.8185L153.281 68.448L150.426 67.1326L153.629 60.1789C153.87 59.6557 153.983 59.1617 153.968 58.6968C153.953 58.2319 153.825 57.8208 153.585 57.4634C153.351 57.0914 152.994 56.795 152.515 56.5741C152.064 56.3666 151.614 56.2915 151.165 56.3489C150.722 56.3917 150.32 56.5585 149.957 56.8493C149.594 57.1401 149.292 57.5471 149.051 58.0703L145.848 65.024L142.992 63.7087L146.195 56.7549C146.436 56.2317 146.549 55.7377 146.534 55.2729C146.52 54.808 146.385 54.3935 146.129 54.0294C145.896 53.6575 145.546 53.3644 145.081 53.1502C144.631 52.9427 144.181 52.8676 143.732 52.9249C143.289 52.9677 142.886 53.1345 142.523 53.4253C142.16 53.7162 141.859 54.1232 141.618 54.6463L138.414 61.6001L135.559 60.2847Z" fill="#CBFB7C"/>
<path d="M159.806 71.7703C158.89 71.3486 158.184 70.777 157.689 70.0554C157.208 69.3406 156.953 68.5362 156.924 67.6423C156.91 66.755 157.127 65.8245 157.576 64.8508L160.92 57.5919L163.775 58.9072L160.542 65.9264C160.314 66.4205 160.208 66.9 160.223 67.3648C160.259 67.8219 160.409 68.2431 160.671 68.6284C160.956 69.0059 161.33 69.3017 161.795 69.5159C162.26 69.7301 162.721 69.8192 163.178 69.7831C163.642 69.7325 164.063 69.5651 164.44 69.2809C164.818 68.9968 165.127 68.5932 165.368 68.07L168.571 61.1162L171.426 62.4316L165.964 74.29L163.261 73.045L164.336 70.7125L164.385 71.2371C163.774 71.8366 163.065 72.1707 162.258 72.2395C161.466 72.3149 160.648 72.1586 159.806 71.7703Z" fill="#CBFB7C"/>
<path d="M173.011 77.8528C171.746 77.2704 170.779 76.4638 170.109 75.4329C169.46 74.3941 169.199 73.2785 169.325 72.086L171.933 72.0455C171.931 72.8545 172.111 73.5718 172.475 74.1974C172.853 74.8296 173.376 75.2996 174.045 75.6076C174.568 75.8485 175.036 75.9231 175.448 75.8311C175.86 75.7392 176.153 75.5043 176.327 75.1264C176.435 74.8939 176.456 74.6749 176.392 74.4693C176.35 74.2559 176.243 74.0481 176.072 73.846C175.922 73.636 175.74 73.4378 175.526 73.2513L173.837 71.8127C172.969 71.0602 172.41 70.2655 172.161 69.4287C171.927 68.5986 171.997 67.7766 172.372 66.9628C172.707 66.2362 173.18 65.6877 173.791 65.3173C174.423 64.9392 175.136 64.7481 175.931 64.7441C176.74 64.7469 177.573 64.9457 178.43 65.3407C179.549 65.8561 180.414 66.5801 181.023 67.5128C181.633 68.4454 181.896 69.4822 181.81 70.6233L179.159 70.6437C179.203 70.0123 179.059 69.4263 178.726 68.8857C178.394 68.3451 177.93 67.9375 177.334 67.6631C176.855 67.4422 176.427 67.3771 176.05 67.4679C175.674 67.5587 175.405 67.7785 175.244 68.1273C175.144 68.3453 175.115 68.561 175.158 68.7744C175.2 68.9878 175.3 69.1922 175.456 69.3877C175.628 69.5898 175.831 69.7981 176.067 70.0124L177.702 71.4528C178.542 72.1919 179.09 72.9726 179.345 73.7949C179.615 74.6239 179.556 75.4598 179.168 76.3027C178.84 77.0148 178.36 77.5599 177.728 77.9381C177.102 78.3017 176.385 78.4822 175.576 78.4795C174.767 78.4767 173.912 78.2678 173.011 77.8528Z" fill="#CBFB7C"/>
<path d="M179.816 80.6705L185.278 68.812L188.134 70.1274L182.672 81.9858L179.816 80.6705ZM185.891 67.4823L187.297 64.4305L190.152 65.7459L188.746 68.7977L185.891 67.4823Z" fill="#CBFB7C"/>
<path d="M190.899 86.0926C189.722 85.5504 188.785 84.7929 188.088 83.8201C187.412 82.8395 187.02 81.7603 186.91 80.5825C186.808 79.3902 187.028 78.2055 187.57 77.0284C188.112 75.8513 188.866 74.9215 189.832 74.2391C190.798 73.5567 191.87 73.1609 193.048 73.0516C194.24 72.949 195.425 73.1688 196.602 73.711C197.445 74.0992 198.16 74.6133 198.746 75.2532C199.338 75.8785 199.776 76.5733 200.058 77.3374C200.361 78.0937 200.465 78.8815 200.37 79.7007L197.361 79.6359C197.418 78.9397 197.268 78.2894 196.912 77.6851C196.571 77.0875 196.066 76.6347 195.397 76.3268C194.772 76.039 194.143 75.9339 193.508 76.0115C192.888 76.0957 192.316 76.3431 191.792 76.7536C191.268 77.1642 190.846 77.7182 190.524 78.4158C190.203 79.1133 190.057 79.7945 190.085 80.4594C190.114 81.1243 190.297 81.7198 190.636 82.2459C190.99 82.7786 191.479 83.1889 192.104 83.4768C192.787 83.7914 193.466 83.8842 194.142 83.7552C194.818 83.6261 195.406 83.3067 195.905 82.7967L197.89 85.0849C197.349 85.6463 196.694 86.0754 195.923 86.3721C195.159 86.6543 194.343 86.7806 193.476 86.7511C192.615 86.7071 191.756 86.4876 190.899 86.0926Z" fill="#CBFB7C"/>
<path d="M332.772 113.448C331.764 113.448 330.884 113.224 330.132 112.776C329.396 112.328 328.828 111.704 328.428 110.904C328.044 110.104 327.852 109.168 327.852 108.096V100.104H330.996V107.832C330.996 108.376 331.1 108.856 331.308 109.272C331.532 109.672 331.844 109.992 332.244 110.232C332.66 110.456 333.124 110.568 333.636 110.568C334.148 110.568 334.604 110.456 335.004 110.232C335.404 109.992 335.716 109.664 335.94 109.248C336.164 108.832 336.276 108.336 336.276 107.76V100.104H339.42V113.16H336.444V110.592L336.708 111.048C336.404 111.848 335.9 112.448 335.196 112.848C334.508 113.248 333.7 113.448 332.772 113.448Z" fill="#CBFB7C"/>
<path d="M341.167 113.16L345.727 106.608L341.143 100.104H344.839L348.415 105.384H346.759L350.335 100.104H354.007L349.447 106.608L353.983 113.16H350.311L346.783 107.904H348.391L344.863 113.16H341.167Z" fill="#CBFB7C"/>
<path d="M354.645 116.04L362.613 96.2396H366.045L358.077 116.04H354.645Z" fill="#CBFB7C"/>
<path d="M372.522 113.448C371.514 113.448 370.634 113.224 369.882 112.776C369.146 112.328 368.578 111.704 368.178 110.904C367.794 110.104 367.602 109.168 367.602 108.096V100.104H370.746V107.832C370.746 108.376 370.85 108.856 371.058 109.272C371.282 109.672 371.594 109.992 371.994 110.232C372.41 110.456 372.874 110.568 373.386 110.568C373.898 110.568 374.354 110.456 374.754 110.232C375.154 109.992 375.466 109.664 375.69 109.248C375.914 108.832 376.026 108.336 376.026 107.76V100.104H379.17V113.16H376.194V110.592L376.458 111.048C376.154 111.848 375.65 112.448 374.946 112.848C374.258 113.248 373.45 113.448 372.522 113.448Z" fill="#CBFB7C"/>
<path d="M382.093 113.16V100.104H385.237V113.16H382.093ZM382.093 98.6396V95.2796H385.237V98.6396H382.093Z" fill="#CBFB7C"/>
<path d="M324.661 141.448C323.397 141.448 322.269 141.152 321.277 140.56C320.285 139.952 319.501 139.128 318.925 138.088C318.349 137.048 318.061 135.896 318.061 134.632C318.061 133.352 318.349 132.2 318.925 131.176C319.501 130.152 320.285 129.336 321.277 128.728C322.285 128.12 323.405 127.816 324.637 127.816C325.629 127.816 326.509 128.016 327.277 128.416C328.061 128.8 328.677 129.344 329.125 130.048L328.645 130.696V122.992H331.789V141.16H328.813V138.64L329.149 139.264C328.701 139.968 328.077 140.512 327.277 140.896C326.477 141.264 325.605 141.448 324.661 141.448ZM324.997 138.568C325.717 138.568 326.349 138.4 326.893 138.064C327.437 137.728 327.861 137.264 328.165 136.672C328.485 136.08 328.645 135.4 328.645 134.632C328.645 133.88 328.485 133.208 328.165 132.616C327.861 132.008 327.437 131.536 326.893 131.2C326.349 130.864 325.717 130.696 324.997 130.696C324.293 130.696 323.661 130.872 323.101 131.224C322.541 131.56 322.101 132.024 321.781 132.616C321.477 133.192 321.325 133.864 321.325 134.632C321.325 135.4 321.477 136.08 321.781 136.672C322.101 137.264 322.541 137.728 323.101 138.064C323.661 138.4 324.293 138.568 324.997 138.568Z" fill="#CBFB7C"/>
<path d="M340.906 141.448C339.562 141.448 338.386 141.144 337.378 140.536C336.37 139.928 335.586 139.104 335.026 138.064C334.466 137.024 334.186 135.872 334.186 134.608C334.186 133.296 334.466 132.136 335.026 131.128C335.602 130.104 336.378 129.296 337.354 128.704C338.346 128.112 339.45 127.816 340.666 127.816C341.69 127.816 342.586 127.984 343.354 128.32C344.138 128.656 344.802 129.12 345.346 129.712C345.89 130.304 346.306 130.984 346.594 131.752C346.882 132.504 347.026 133.32 347.026 134.2C347.026 134.424 347.01 134.656 346.978 134.896C346.962 135.136 346.922 135.344 346.858 135.52H336.778V133.12H345.082L343.594 134.248C343.738 133.512 343.698 132.856 343.474 132.28C343.266 131.704 342.914 131.248 342.418 130.912C341.938 130.576 341.354 130.408 340.666 130.408C340.01 130.408 339.426 130.576 338.914 130.912C338.402 131.232 338.01 131.712 337.738 132.352C337.482 132.976 337.386 133.736 337.45 134.632C337.386 135.432 337.49 136.144 337.762 136.768C338.05 137.376 338.466 137.848 339.01 138.184C339.57 138.52 340.21 138.688 340.93 138.688C341.65 138.688 342.258 138.536 342.754 138.232C343.266 137.928 343.666 137.52 343.954 137.008L346.498 138.256C346.242 138.88 345.842 139.432 345.298 139.912C344.754 140.392 344.106 140.768 343.354 141.04C342.618 141.312 341.802 141.448 340.906 141.448Z" fill="#CBFB7C"/>
<path d="M354.377 141.448C352.985 141.448 351.769 141.12 350.729 140.464C349.705 139.792 349.001 138.888 348.617 137.752L350.969 136.624C351.305 137.36 351.769 137.936 352.361 138.352C352.969 138.768 353.641 138.976 354.377 138.976C354.953 138.976 355.409 138.848 355.745 138.592C356.081 138.336 356.249 138 356.249 137.584C356.249 137.328 356.177 137.12 356.033 136.96C355.905 136.784 355.721 136.64 355.481 136.528C355.257 136.4 355.009 136.296 354.737 136.216L352.601 135.616C351.497 135.296 350.657 134.808 350.081 134.152C349.521 133.496 349.241 132.72 349.241 131.824C349.241 131.024 349.441 130.328 349.841 129.736C350.257 129.128 350.825 128.656 351.545 128.32C352.281 127.984 353.121 127.816 354.065 127.816C355.297 127.816 356.385 128.112 357.329 128.704C358.273 129.296 358.945 130.128 359.345 131.2L356.945 132.328C356.721 131.736 356.345 131.264 355.817 130.912C355.289 130.56 354.697 130.384 354.041 130.384C353.513 130.384 353.097 130.504 352.793 130.744C352.489 130.984 352.337 131.296 352.337 131.68C352.337 131.92 352.401 132.128 352.529 132.304C352.657 132.48 352.833 132.624 353.057 132.736C353.297 132.848 353.569 132.952 353.873 133.048L355.961 133.672C357.033 133.992 357.857 134.472 358.433 135.112C359.025 135.752 359.321 136.536 359.321 137.464C359.321 138.248 359.113 138.944 358.697 139.552C358.281 140.144 357.705 140.608 356.969 140.944C356.233 141.28 355.369 141.448 354.377 141.448Z" fill="#CBFB7C"/>
<path d="M361.737 141.16V128.104H364.881V141.16H361.737ZM361.737 126.64V123.28H364.881V126.64H361.737Z" fill="#CBFB7C"/>
<path d="M374.12 146.44C373.144 146.44 372.24 146.28 371.408 145.96C370.576 145.64 369.856 145.192 369.248 144.616C368.656 144.056 368.224 143.392 367.952 142.624L370.88 141.52C371.072 142.128 371.448 142.616 372.008 142.984C372.584 143.368 373.288 143.56 374.12 143.56C374.76 143.56 375.32 143.44 375.8 143.2C376.296 142.96 376.68 142.608 376.952 142.144C377.224 141.696 377.36 141.152 377.36 140.512V137.536L377.96 138.256C377.512 139.04 376.912 139.632 376.16 140.032C375.408 140.432 374.552 140.632 373.592 140.632C372.376 140.632 371.288 140.352 370.328 139.792C369.368 139.232 368.616 138.464 368.072 137.488C367.528 136.512 367.256 135.416 367.256 134.2C367.256 132.968 367.528 131.872 368.072 130.912C368.616 129.952 369.36 129.2 370.304 128.656C371.248 128.096 372.32 127.816 373.52 127.816C374.496 127.816 375.352 128.024 376.088 128.44C376.84 128.84 377.464 129.424 377.96 130.192L377.528 130.984V128.104H380.504V140.512C380.504 141.648 380.224 142.664 379.664 143.56C379.12 144.456 378.368 145.16 377.408 145.672C376.464 146.184 375.368 146.44 374.12 146.44ZM373.976 137.728C374.648 137.728 375.232 137.584 375.728 137.296C376.24 136.992 376.64 136.576 376.928 136.048C377.216 135.52 377.36 134.912 377.36 134.224C377.36 133.552 377.208 132.952 376.904 132.424C376.616 131.88 376.216 131.456 375.704 131.152C375.208 130.848 374.632 130.696 373.976 130.696C373.32 130.696 372.728 130.848 372.2 131.152C371.672 131.456 371.256 131.88 370.952 132.424C370.664 132.952 370.52 133.552 370.52 134.224C370.52 134.896 370.664 135.496 370.952 136.024C371.256 136.552 371.664 136.968 372.176 137.272C372.704 137.576 373.304 137.728 373.976 137.728Z" fill="#CBFB7C"/>
<path d="M383.44 141.16V128.104H386.392V130.672L386.152 130.216C386.456 129.432 386.952 128.84 387.64 128.44C388.344 128.024 389.16 127.816 390.088 127.816C391.048 127.816 391.896 128.024 392.632 128.44C393.384 128.856 393.968 129.44 394.384 130.192C394.8 130.928 395.008 131.784 395.008 132.76V141.16H391.864V133.504C391.864 132.928 391.752 132.432 391.528 132.016C391.304 131.6 390.992 131.28 390.592 131.056C390.208 130.816 389.752 130.696 389.224 130.696C388.712 130.696 388.256 130.816 387.856 131.056C387.456 131.28 387.144 131.6 386.92 132.016C386.696 132.432 386.584 132.928 386.584 133.504V141.16H383.44Z" fill="#CBFB7C"/>
</svg>
