<svg width="93" height="20" viewBox="0 0 93 20" fill="none" xmlns="http://www.w3.org/2000/svg">
<path d="M0 19.612V6.55601H3.144V19.612H0ZM0 5.09201V1.73201H3.144V5.09201H0Z" fill="black"/>
<path d="M6.04688 19.612V6.55601H8.99888V9.12401L8.75887 8.66801C9.06287 7.88401 9.55888 7.29201 10.2469 6.89201C10.9509 6.47601 11.7669 6.26801 12.6949 6.26801C13.6549 6.26801 14.5029 6.47601 15.2389 6.89201C15.9909 7.30801 16.5749 7.89201 16.9909 8.64401C17.4069 9.38001 17.6149 10.236 17.6149 11.212V19.612H14.4709V11.956C14.4709 11.38 14.3589 10.884 14.1349 10.468C13.9109 10.052 13.5989 9.73201 13.1989 9.50801C12.8149 9.26801 12.3589 9.14801 11.8309 9.14801C11.3189 9.14801 10.8629 9.26801 10.4629 9.50801C10.0629 9.73201 9.75088 10.052 9.52688 10.468C9.30288 10.884 9.19088 11.38 9.19088 11.956V19.612H6.04688Z" fill="black"/>
<path d="M26.4654 19.9C25.1214 19.9 23.9454 19.596 22.9374 18.988C21.9294 18.38 21.1454 17.556 20.5854 16.516C20.0254 15.476 19.7454 14.324 19.7454 13.06C19.7454 11.748 20.0254 10.588 20.5854 9.58001C21.1614 8.55601 21.9374 7.74801 22.9134 7.15601C23.9054 6.56401 25.0094 6.26801 26.2254 6.26801C27.2494 6.26801 28.1454 6.43601 28.9134 6.77201C29.6974 7.10801 30.3614 7.57201 30.9054 8.16401C31.4494 8.75601 31.8654 9.43601 32.1534 10.204C32.4414 10.956 32.5854 11.772 32.5854 12.652C32.5854 12.876 32.5694 13.108 32.5374 13.348C32.5214 13.588 32.4814 13.796 32.4174 13.972H22.3374V11.572H30.6414L29.1534 12.7C29.2974 11.964 29.2574 11.308 29.0334 10.732C28.8254 10.156 28.4734 9.70001 27.9774 9.36401C27.4974 9.02801 26.9134 8.86001 26.2254 8.86001C25.5694 8.86001 24.9854 9.02801 24.4734 9.36401C23.9614 9.68401 23.5694 10.164 23.2974 10.804C23.0414 11.428 22.9454 12.188 23.0094 13.084C22.9454 13.884 23.0494 14.596 23.3214 15.22C23.6094 15.828 24.0254 16.3 24.5694 16.636C25.1294 16.972 25.7694 17.14 26.4894 17.14C27.2094 17.14 27.8174 16.988 28.3134 16.684C28.8254 16.38 29.2254 15.972 29.5134 15.46L32.0574 16.708C31.8014 17.332 31.4014 17.884 30.8574 18.364C30.3134 18.844 29.6654 19.22 28.9134 19.492C28.1774 19.764 27.3614 19.9 26.4654 19.9ZM24.6174 4.25201L26.1774 0.100006H30.2574L27.7134 4.25201H24.6174Z" fill="black"/>
<path d="M39.9367 19.9C38.5447 19.9 37.3287 19.572 36.2887 18.916C35.2647 18.244 34.5608 17.34 34.1768 16.204L36.5288 15.076C36.8648 15.812 37.3287 16.388 37.9207 16.804C38.5287 17.22 39.2007 17.428 39.9367 17.428C40.5127 17.428 40.9687 17.3 41.3047 17.044C41.6407 16.788 41.8088 16.452 41.8088 16.036C41.8088 15.78 41.7368 15.572 41.5928 15.412C41.4648 15.236 41.2807 15.092 41.0407 14.98C40.8167 14.852 40.5687 14.748 40.2967 14.668L38.1608 14.068C37.0568 13.748 36.2168 13.26 35.6408 12.604C35.0808 11.948 34.8008 11.172 34.8008 10.276C34.8008 9.47601 35.0007 8.78001 35.4007 8.18801C35.8167 7.58001 36.3848 7.10801 37.1048 6.77201C37.8408 6.43601 38.6808 6.26801 39.6248 6.26801C40.8568 6.26801 41.9448 6.56401 42.8888 7.15601C43.8328 7.74801 44.5048 8.58001 44.9048 9.65201L42.5047 10.78C42.2807 10.188 41.9048 9.71601 41.3768 9.36401C40.8488 9.01201 40.2568 8.83601 39.6007 8.83601C39.0728 8.83601 38.6567 8.95601 38.3527 9.19601C38.0487 9.43601 37.8968 9.74801 37.8968 10.132C37.8968 10.372 37.9607 10.58 38.0887 10.756C38.2167 10.932 38.3927 11.076 38.6167 11.188C38.8567 11.3 39.1288 11.404 39.4328 11.5L41.5208 12.124C42.5928 12.444 43.4167 12.924 43.9927 13.564C44.5847 14.204 44.8808 14.988 44.8808 15.916C44.8808 16.7 44.6728 17.396 44.2568 18.004C43.8408 18.596 43.2648 19.06 42.5288 19.396C41.7928 19.732 40.9287 19.9 39.9367 19.9Z" fill="black"/>
<path d="M51.5625 19.612V6.55601H54.5145V9.46001L54.2745 9.02801C54.5785 8.05201 55.0505 7.37201 55.6905 6.98801C56.3465 6.60401 57.1305 6.41201 58.0425 6.41201H58.8105V9.19601H57.6825C56.7865 9.19601 56.0665 9.47601 55.5225 10.036C54.9785 10.58 54.7065 11.348 54.7065 12.34V19.612H51.5625Z" fill="black"/>
<path d="M66.7311 19.9C65.3871 19.9 64.2111 19.596 63.2031 18.988C62.1951 18.38 61.4111 17.556 60.8511 16.516C60.2911 15.476 60.0111 14.324 60.0111 13.06C60.0111 11.748 60.2911 10.588 60.8511 9.58001C61.4271 8.55601 62.2031 7.74801 63.1791 7.15601C64.1711 6.56401 65.2751 6.26801 66.4911 6.26801C67.5151 6.26801 68.4111 6.43601 69.1791 6.77201C69.9631 7.10801 70.6271 7.57201 71.1711 8.16401C71.7151 8.75601 72.1311 9.43601 72.4191 10.204C72.7071 10.956 72.8511 11.772 72.8511 12.652C72.8511 12.876 72.8351 13.108 72.8031 13.348C72.7871 13.588 72.7471 13.796 72.6831 13.972H62.6031V11.572H70.9071L69.4191 12.7C69.5631 11.964 69.5231 11.308 69.2991 10.732C69.0911 10.156 68.7391 9.70001 68.2431 9.36401C67.7631 9.02801 67.1791 8.86001 66.4911 8.86001C65.8351 8.86001 65.2511 9.02801 64.7391 9.36401C64.2271 9.68401 63.8351 10.164 63.5631 10.804C63.3071 11.428 63.2111 12.188 63.2751 13.084C63.2111 13.884 63.3151 14.596 63.5871 15.22C63.8751 15.828 64.2911 16.3 64.8351 16.636C65.3951 16.972 66.0351 17.14 66.7551 17.14C67.4751 17.14 68.0831 16.988 68.5791 16.684C69.0911 16.38 69.4911 15.972 69.7791 15.46L72.3231 16.708C72.0671 17.332 71.6671 17.884 71.1231 18.364C70.5791 18.844 69.9311 19.22 69.1791 19.492C68.4431 19.764 67.6271 19.9 66.7311 19.9Z" fill="black"/>
<path d="M79.1475 19.9C78.2355 19.9 77.4435 19.748 76.7715 19.444C76.0995 19.14 75.5795 18.708 75.2115 18.148C74.8435 17.572 74.6595 16.908 74.6595 16.156C74.6595 15.436 74.8195 14.796 75.1395 14.236C75.4595 13.66 75.9555 13.18 76.6275 12.796C77.2995 12.412 78.1475 12.14 79.1715 11.98L83.4435 11.284V13.684L79.7715 14.308C79.1475 14.42 78.6835 14.62 78.3795 14.908C78.0755 15.196 77.9235 15.572 77.9235 16.036C77.9235 16.484 78.0915 16.844 78.4275 17.116C78.7795 17.372 79.2115 17.5 79.7235 17.5C80.3795 17.5 80.9555 17.364 81.4515 17.092C81.9635 16.804 82.3555 16.412 82.6275 15.916C82.9155 15.42 83.0595 14.876 83.0595 14.284V10.924C83.0595 10.364 82.8355 9.90001 82.3875 9.53201C81.9555 9.14801 81.3795 8.95601 80.6595 8.95601C79.9875 8.95601 79.3875 9.14001 78.8595 9.50801C78.3475 9.86001 77.9715 10.332 77.7315 10.924L75.1635 9.67601C75.4195 8.98801 75.8195 8.39601 76.3635 7.90001C76.9235 7.38801 77.5795 6.98801 78.3315 6.70001C79.0835 6.41201 79.8995 6.26801 80.7795 6.26801C81.8515 6.26801 82.7955 6.46801 83.6115 6.86801C84.4275 7.25201 85.0595 7.79601 85.5075 8.50001C85.9715 9.18801 86.2035 9.99601 86.2035 10.924V19.612H83.2275V17.38L83.8995 17.332C83.5635 17.892 83.1635 18.364 82.6995 18.748C82.2355 19.116 81.7075 19.404 81.1155 19.612C80.5235 19.804 79.8675 19.9 79.1475 19.9Z" fill="black"/>
<path d="M89.1094 19.612V1.44401H92.2534V19.612H89.1094Z" fill="black"/>
</svg>
