<svg width="212" height="211" viewBox="0 0 212 211" fill="none" xmlns="http://www.w3.org/2000/svg">
<path d="M105.731 0.429703L126.167 24.029L155.211 12.6443L162.356 43.0519L193.356 46.49L185.573 76.7398L211.427 94.213L190.499 117.375L205.285 144.881L176.006 155.649L176.335 186.886L145.414 182.793L131.212 210.605L105.731 192.589L80.2507 210.605L66.048 182.793L35.1269 186.886L35.4559 155.649L6.17772 144.881L20.9629 117.375L0.0350342 94.213L25.8893 76.7398L18.1061 46.49L49.1066 43.0519L56.251 12.6443L85.2958 24.029L105.731 0.429703Z" fill="#683EE0"/>
<path d="M81.772 99.4476C80.764 99.4476 79.884 99.2236 79.132 98.7756C78.396 98.3276 77.828 97.7036 77.428 96.9036C77.044 96.1036 76.852 95.1676 76.852 94.0956V86.1036H79.996V93.8316C79.996 94.3756 80.1 94.8556 80.308 95.2716C80.532 95.6716 80.844 95.9916 81.244 96.2316C81.66 96.4556 82.124 96.5676 82.636 96.5676C83.148 96.5676 83.604 96.4556 84.004 96.2316C84.404 95.9916 84.716 95.6636 84.94 95.2476C85.164 94.8316 85.276 94.3356 85.276 93.7596V86.1036H88.42V99.1596H85.444V96.5916L85.708 97.0476C85.404 97.8476 84.9 98.4476 84.196 98.8476C83.508 99.2476 82.7 99.4476 81.772 99.4476Z" fill="#CBFB7C"/>
<path d="M90.1665 99.1596L94.7265 92.6076L90.1426 86.1036H93.8385L97.4146 91.3836H95.7586L99.3345 86.1036H103.007L98.4465 92.6076L102.983 99.1596H99.3106L95.7825 93.9036H97.3905L93.8626 99.1596H90.1665Z" fill="#CBFB7C"/>
<path d="M103.645 102.04L111.613 82.2396H115.045L107.077 102.04H103.645Z" fill="#CBFB7C"/>
<path d="M121.522 99.4476C120.514 99.4476 119.634 99.2236 118.882 98.7756C118.146 98.3276 117.578 97.7036 117.178 96.9036C116.794 96.1036 116.602 95.1676 116.602 94.0956V86.1036H119.746V93.8316C119.746 94.3756 119.85 94.8556 120.058 95.2716C120.282 95.6716 120.594 95.9916 120.994 96.2316C121.41 96.4556 121.874 96.5676 122.386 96.5676C122.898 96.5676 123.354 96.4556 123.754 96.2316C124.154 95.9916 124.466 95.6636 124.69 95.2476C124.914 94.8316 125.026 94.3356 125.026 93.7596V86.1036H128.17V99.1596H125.194V96.5916L125.458 97.0476C125.154 97.8476 124.65 98.4476 123.946 98.8476C123.258 99.2476 122.45 99.4476 121.522 99.4476Z" fill="#CBFB7C"/>
<path d="M131.093 99.1596V86.1036H134.237V99.1596H131.093ZM131.093 84.6396V81.2796H134.237V84.6396H131.093Z" fill="#CBFB7C"/>
<path d="M73.6607 127.448C72.3967 127.448 71.2687 127.152 70.2767 126.56C69.2847 125.952 68.5006 125.128 67.9246 124.088C67.3486 123.048 67.0607 121.896 67.0607 120.632C67.0607 119.352 67.3486 118.2 67.9246 117.176C68.5006 116.152 69.2847 115.336 70.2767 114.728C71.2847 114.12 72.4046 113.816 73.6366 113.816C74.6286 113.816 75.5087 114.016 76.2767 114.416C77.0607 114.8 77.6766 115.344 78.1246 116.048L77.6446 116.696V108.992H80.7887V127.16H77.8126V124.64L78.1486 125.264C77.7006 125.968 77.0767 126.512 76.2767 126.896C75.4767 127.264 74.6047 127.448 73.6607 127.448ZM73.9967 124.568C74.7167 124.568 75.3487 124.4 75.8927 124.064C76.4367 123.728 76.8607 123.264 77.1647 122.672C77.4847 122.08 77.6446 121.4 77.6446 120.632C77.6446 119.88 77.4847 119.208 77.1647 118.616C76.8607 118.008 76.4367 117.536 75.8927 117.2C75.3487 116.864 74.7167 116.696 73.9967 116.696C73.2927 116.696 72.6607 116.872 72.1007 117.224C71.5407 117.56 71.1007 118.024 70.7807 118.616C70.4767 119.192 70.3247 119.864 70.3247 120.632C70.3247 121.4 70.4767 122.08 70.7807 122.672C71.1007 123.264 71.5407 123.728 72.1007 124.064C72.6607 124.4 73.2927 124.568 73.9967 124.568Z" fill="#CBFB7C"/>
<path d="M89.9057 127.448C88.5617 127.448 87.3856 127.144 86.3776 126.536C85.3696 125.928 84.5857 125.104 84.0257 124.064C83.4657 123.024 83.1857 121.872 83.1857 120.608C83.1857 119.296 83.4657 118.136 84.0257 117.128C84.6017 116.104 85.3777 115.296 86.3537 114.704C87.3457 114.112 88.4496 113.816 89.6656 113.816C90.6896 113.816 91.5857 113.984 92.3537 114.32C93.1377 114.656 93.8017 115.12 94.3457 115.712C94.8897 116.304 95.3056 116.984 95.5936 117.752C95.8816 118.504 96.0257 119.32 96.0257 120.2C96.0257 120.424 96.0096 120.656 95.9776 120.896C95.9616 121.136 95.9217 121.344 95.8577 121.52H85.7777V119.12H94.0816L92.5936 120.248C92.7376 119.512 92.6976 118.856 92.4736 118.28C92.2656 117.704 91.9136 117.248 91.4176 116.912C90.9376 116.576 90.3536 116.408 89.6656 116.408C89.0096 116.408 88.4257 116.576 87.9137 116.912C87.4017 117.232 87.0097 117.712 86.7377 118.352C86.4817 118.976 86.3857 119.736 86.4497 120.632C86.3857 121.432 86.4896 122.144 86.7616 122.768C87.0496 123.376 87.4657 123.848 88.0097 124.184C88.5697 124.52 89.2096 124.688 89.9296 124.688C90.6496 124.688 91.2576 124.536 91.7536 124.232C92.2656 123.928 92.6657 123.52 92.9537 123.008L95.4976 124.256C95.2416 124.88 94.8417 125.432 94.2977 125.912C93.7537 126.392 93.1057 126.768 92.3537 127.04C91.6177 127.312 90.8017 127.448 89.9057 127.448Z" fill="#CBFB7C"/>
<path d="M103.377 127.448C101.985 127.448 100.769 127.12 99.729 126.464C98.705 125.792 98.001 124.888 97.617 123.752L99.9689 122.624C100.305 123.36 100.769 123.936 101.361 124.352C101.969 124.768 102.641 124.976 103.377 124.976C103.953 124.976 104.409 124.848 104.745 124.592C105.081 124.336 105.249 124 105.249 123.584C105.249 123.328 105.177 123.12 105.033 122.96C104.905 122.784 104.721 122.64 104.481 122.528C104.257 122.4 104.009 122.296 103.737 122.216L101.601 121.616C100.497 121.296 99.6569 120.808 99.0809 120.152C98.5209 119.496 98.241 118.72 98.241 117.824C98.241 117.024 98.441 116.328 98.841 115.736C99.257 115.128 99.825 114.656 100.545 114.32C101.281 113.984 102.121 113.816 103.065 113.816C104.297 113.816 105.385 114.112 106.329 114.704C107.273 115.296 107.945 116.128 108.345 117.2L105.945 118.328C105.721 117.736 105.345 117.264 104.817 116.912C104.289 116.56 103.697 116.384 103.041 116.384C102.513 116.384 102.097 116.504 101.793 116.744C101.489 116.984 101.337 117.296 101.337 117.68C101.337 117.92 101.401 118.128 101.529 118.304C101.657 118.48 101.833 118.624 102.057 118.736C102.297 118.848 102.569 118.952 102.873 119.048L104.961 119.672C106.033 119.992 106.857 120.472 107.433 121.112C108.025 121.752 108.321 122.536 108.321 123.464C108.321 124.248 108.113 124.944 107.697 125.552C107.281 126.144 106.705 126.608 105.969 126.944C105.233 127.28 104.369 127.448 103.377 127.448Z" fill="#CBFB7C"/>
<path d="M110.737 127.16V114.104H113.881V127.16H110.737ZM110.737 112.64V109.28H113.881V112.64H110.737Z" fill="#CBFB7C"/>
<path d="M123.12 132.44C122.144 132.44 121.24 132.28 120.408 131.96C119.576 131.64 118.856 131.192 118.248 130.616C117.656 130.056 117.224 129.392 116.952 128.624L119.88 127.52C120.072 128.128 120.448 128.616 121.008 128.984C121.584 129.368 122.288 129.56 123.12 129.56C123.76 129.56 124.32 129.44 124.8 129.2C125.296 128.96 125.68 128.608 125.952 128.144C126.224 127.696 126.36 127.152 126.36 126.512V123.536L126.96 124.256C126.512 125.04 125.912 125.632 125.16 126.032C124.408 126.432 123.552 126.632 122.592 126.632C121.376 126.632 120.288 126.352 119.328 125.792C118.368 125.232 117.616 124.464 117.072 123.488C116.528 122.512 116.256 121.416 116.256 120.2C116.256 118.968 116.528 117.872 117.072 116.912C117.616 115.952 118.36 115.2 119.304 114.656C120.248 114.096 121.32 113.816 122.52 113.816C123.496 113.816 124.352 114.024 125.088 114.44C125.84 114.84 126.464 115.424 126.96 116.192L126.528 116.984V114.104H129.504V126.512C129.504 127.648 129.224 128.664 128.664 129.56C128.12 130.456 127.368 131.16 126.408 131.672C125.464 132.184 124.368 132.44 123.12 132.44ZM122.976 123.728C123.648 123.728 124.232 123.584 124.728 123.296C125.24 122.992 125.64 122.576 125.928 122.048C126.216 121.52 126.36 120.912 126.36 120.224C126.36 119.552 126.208 118.952 125.904 118.424C125.616 117.88 125.216 117.456 124.704 117.152C124.208 116.848 123.632 116.696 122.976 116.696C122.32 116.696 121.728 116.848 121.2 117.152C120.672 117.456 120.256 117.88 119.952 118.424C119.664 118.952 119.52 119.552 119.52 120.224C119.52 120.896 119.664 121.496 119.952 122.024C120.256 122.552 120.664 122.968 121.176 123.272C121.704 123.576 122.304 123.728 122.976 123.728Z" fill="#CBFB7C"/>
<path d="M132.44 127.16V114.104H135.392V116.672L135.152 116.216C135.456 115.432 135.952 114.84 136.64 114.44C137.344 114.024 138.16 113.816 139.088 113.816C140.048 113.816 140.896 114.024 141.632 114.44C142.384 114.856 142.968 115.44 143.384 116.192C143.8 116.928 144.008 117.784 144.008 118.76V127.16H140.864V119.504C140.864 118.928 140.752 118.432 140.528 118.016C140.304 117.6 139.992 117.28 139.592 117.056C139.208 116.816 138.752 116.696 138.224 116.696C137.712 116.696 137.256 116.816 136.856 117.056C136.456 117.28 136.144 117.6 135.92 118.016C135.696 118.432 135.584 118.928 135.584 119.504V127.16H132.44Z" fill="#CBFB7C"/>
</svg>
